<svg width="314" height="281" viewBox="0 0 314 281" fill="none" xmlns="http://www.w3.org/2000/svg">
<path d="M142.705 280.519C163.39 280.519 180.158 276.895 180.158 272.423C180.158 267.952 163.39 264.327 142.705 264.327C122.021 264.327 105.253 267.952 105.253 272.423C105.253 276.895 122.021 280.519 142.705 280.519Z" fill="#F0EEEE"/>
<path d="M275.576 272.423C296.261 272.423 313.028 268.799 313.028 264.327C313.028 259.856 296.261 256.231 275.576 256.231C254.892 256.231 238.124 259.856 238.124 264.327C238.124 268.799 254.892 272.423 275.576 272.423Z" fill="#F0EEEE"/>
<path d="M215.991 264.327C269.665 264.327 313.176 260.703 313.176 256.231C313.176 251.76 269.665 248.135 215.991 248.135C162.317 248.135 118.805 251.76 118.805 256.231C118.805 260.703 162.317 264.327 215.991 264.327Z" fill="#F0EEEE"/>
<path d="M98.0094 258.817C151.683 258.817 195.195 255.192 195.195 250.721C195.195 246.249 151.683 242.625 98.0094 242.625C44.3354 242.625 0.823975 246.249 0.823975 250.721C0.823975 255.192 44.3354 258.817 98.0094 258.817Z" fill="#F0EEEE"/>
<path d="M75.1582 153.383C109.249 153.383 136.885 125.747 136.885 91.6565C136.885 57.5658 109.249 29.9297 75.1582 29.9297C41.0674 29.9297 13.4314 57.5658 13.4314 91.6565C13.4314 125.747 41.0674 153.383 75.1582 153.383Z" fill="#57633C"/>
<path d="M75.1583 145.122C104.687 145.122 128.624 121.185 128.624 91.6566C128.624 62.1282 104.687 38.1907 75.1583 38.1907C45.6299 38.1907 21.6924 62.1282 21.6924 91.6566C21.6924 121.185 45.6299 145.122 75.1583 145.122Z" fill="#F8FFE7"/>
<path opacity="0.57" d="M94.2836 93.7381C101.741 82.4696 102.531 62.1625 98.7837 51.3461C91.9533 47.3339 84.0162 44.9957 75.5257 44.9285C49.7192 44.726 28.6336 65.4817 28.4311 91.2891C28.3727 98.7523 30.0755 105.815 33.1381 112.097C33.5011 112.149 33.886 112.115 34.2256 112.257C51.2929 119.373 80.2632 114.925 94.2836 93.7381Z" fill="#FFFAFF"/>
<path d="M75.441 55.6176C76.34 55.6246 77.081 54.895 77.0879 53.996L77.1665 43.9887C77.1735 43.0897 76.4438 42.3487 75.5449 42.3417C74.6459 42.3347 73.9049 43.0644 73.8979 43.9634L73.8194 53.9707C73.8133 54.8697 74.542 55.6107 75.441 55.6176Z" fill="#57633C"/>
<path d="M74.7706 140.971C75.6696 140.978 76.4106 140.248 76.4175 139.349L76.4961 129.342C76.5031 128.443 75.7734 127.702 74.8745 127.695C73.9755 127.688 73.2345 128.417 73.2275 129.316L73.149 139.324C73.1429 140.223 73.8716 140.964 74.7706 140.971Z" fill="#57633C"/>
<path d="M111.197 91.9394C111.19 92.8383 111.92 93.5793 112.819 93.5863L122.826 93.6649C123.725 93.6718 124.466 92.9422 124.473 92.0432C124.48 91.1443 123.75 90.4033 122.851 90.3963L112.844 90.3177C111.945 90.3116 111.204 91.0404 111.197 91.9394Z" fill="#57633C"/>
<path d="M25.844 91.2691C25.8371 92.168 26.5667 92.909 27.4657 92.916L37.473 92.9946C38.372 93.0016 39.113 92.2719 39.12 91.3729C39.1269 90.474 38.3973 89.733 37.4983 89.726L27.491 89.6474C26.592 89.6405 25.851 90.3701 25.844 91.2691Z" fill="#57633C"/>
<path d="M97.389 55.4736C98.2913 55.4736 99.0228 54.7421 99.0228 53.8397C99.0228 52.9374 98.2913 52.2059 97.389 52.2059C96.4866 52.2059 95.7551 52.9374 95.7551 53.8397C95.7551 54.7421 96.4866 55.4736 97.389 55.4736Z" fill="#57633C"/>
<path d="M52.9266 131.106C53.8289 131.106 54.5604 130.375 54.5604 129.473C54.5604 128.57 53.8289 127.839 52.9266 127.839C52.0242 127.839 51.2927 128.57 51.2927 129.473C51.2927 130.375 52.0242 131.106 52.9266 131.106Z" fill="#57633C"/>
<path d="M113.319 71.6559C114.221 71.6559 114.953 70.9244 114.953 70.022C114.953 69.1197 114.221 68.3882 113.319 68.3882C112.417 68.3882 111.685 69.1197 111.685 70.022C111.685 70.9244 112.417 71.6559 113.319 71.6559Z" fill="#57633C"/>
<path d="M36.9974 114.925C37.8997 114.925 38.6312 114.194 38.6312 113.291C38.6312 112.389 37.8997 111.657 36.9974 111.657C36.095 111.657 35.3635 112.389 35.3635 113.291C35.3635 114.194 36.095 114.925 36.9974 114.925Z" fill="#57633C"/>
<path d="M112.975 115.521C113.877 115.521 114.609 114.79 114.609 113.887C114.609 112.985 113.877 112.253 112.975 112.253C112.073 112.253 111.341 112.985 111.341 113.887C111.341 114.79 112.073 115.521 112.975 115.521Z" fill="#57633C"/>
<path d="M37.3414 71.0589C38.2437 71.0589 38.9752 70.3274 38.9752 69.425C38.9752 68.5227 38.2437 67.7912 37.3414 67.7912C36.439 67.7912 35.7075 68.5227 35.7075 69.425C35.7075 70.3274 36.439 71.0589 37.3414 71.0589Z" fill="#57633C"/>
<path d="M96.7928 131.451C97.6951 131.451 98.4266 130.72 98.4266 129.817C98.4266 128.915 97.6951 128.183 96.7928 128.183C95.8904 128.183 95.1589 128.915 95.1589 129.817C95.1589 130.72 95.8904 131.451 96.7928 131.451Z" fill="#57633C"/>
<path d="M53.5235 55.1297C54.4259 55.1297 55.1574 54.3982 55.1574 53.4958C55.1574 52.5935 54.4259 51.862 53.5235 51.862C52.6212 51.862 51.8896 52.5935 51.8896 53.4958C51.8896 54.3982 52.6212 55.1297 53.5235 55.1297Z" fill="#57633C"/>
<path d="M91.748 79.3686C96.6356 77.4615 119.444 67.6506 119.444 67.6506L119.528 67.8068L119.694 68.1158L119.778 68.272C119.778 68.272 99.0183 81.8944 94.7338 84.9212C90.4493 87.948 75.2568 92.682 75.2568 92.682L74.9801 92.1671L74.8143 91.8581L74.5376 91.3432C74.5376 91.3432 86.8613 81.2756 91.748 79.3686Z" fill="#FFD501"/>
<path d="M59.6496 94.9731C55.9088 94.3936 38.1555 92.4961 38.1555 92.4961L38.1529 92.319L38.1476 91.9681L38.145 91.7909C38.145 91.7909 55.8337 89.362 59.5553 88.6699C63.2768 87.9777 74.5148 90.8379 74.5148 90.8379L74.5235 91.4226L74.5288 91.7735L74.5375 92.3582C74.5375 92.3582 63.3903 95.5535 59.6496 94.9731Z" fill="#FFD501"/>
<path d="M75.1582 94.9251C76.9634 94.9251 78.4268 93.4617 78.4268 91.6565C78.4268 89.8513 76.9634 88.3879 75.1582 88.3879C73.353 88.3879 71.8896 89.8513 71.8896 91.6565C71.8896 93.4617 73.353 94.9251 75.1582 94.9251Z" fill="#57633C"/>
<path d="M262.238 257.206H155.946C148.423 257.206 136.733 251.551 137.606 244.028L170.07 18.0565C170.943 10.5339 177.749 4.43492 185.272 4.43492L285.059 0.544922C297.194 0.544922 304.477 10.5331 303.604 18.0565L277.439 243.585C276.566 251.107 269.76 257.206 262.238 257.206Z" fill="#57633C"/>
<path d="M254.405 253.252H148.114C140.592 253.252 135.201 247.154 136.073 239.63L162.239 14.1019C163.111 6.57936 169.917 0.480347 177.441 0.480347H283.732C291.254 0.480347 296.646 6.57849 295.773 14.1019L269.608 239.63C268.735 247.153 261.929 253.252 254.405 253.252Z" fill="#57633C"/>
<path d="M254.379 248.523H149.238C143.512 248.523 139.41 243.882 140.074 238.157L165.987 14.8018C166.651 9.07638 171.831 4.43579 177.556 4.43579H282.698C288.423 4.43579 292.525 9.07726 291.861 14.8018L265.948 238.157C265.284 243.882 260.105 248.523 254.379 248.523Z" fill="#8CBE19"/>
<path d="M211.359 242.903H189.443C186.906 242.903 185.071 240.827 185.365 238.29C185.659 235.752 187.976 233.676 190.514 233.676H212.43C214.967 233.676 216.802 235.752 216.508 238.29C216.213 240.827 213.896 242.903 211.359 242.903Z" fill="#57633C"/>
<path d="M261.485 228.403H145.922L169.875 21.9387H285.438L261.485 228.403Z" fill="white"/>
<path d="M269.439 53.7952H178.584C175.793 53.7952 173.793 51.533 174.117 48.7418L175.953 32.9235C176.276 30.1323 178.801 27.8701 181.592 27.8701H272.447C275.238 27.8701 277.237 30.1323 276.914 32.9235L275.078 48.7418C274.754 51.533 272.229 53.7952 269.439 53.7952Z" fill="#EBEDE8"/>
<path d="M186.396 43.3225L187.107 37.1854H188.052L190.233 41.6655H189.739L192.915 37.1854H193.859L193.156 43.3225H192.071L192.577 38.8775H192.807L190.113 42.6211H189.601L187.741 38.8775H188.006L187.49 43.3225H186.396ZM196.83 43.3839C196.348 43.3839 195.93 43.2816 195.577 43.077C195.225 42.8666 194.961 42.5802 194.786 42.2178C194.61 41.8555 194.549 41.4434 194.602 40.9817C194.657 40.5141 194.813 40.102 195.072 39.7455C195.332 39.3831 195.662 39.0996 196.062 38.895C196.463 38.6905 196.904 38.5882 197.387 38.5882C197.875 38.5882 198.296 38.6905 198.648 38.895C199.007 39.0996 199.272 39.3802 199.442 39.7367C199.619 40.0932 199.679 40.5082 199.624 40.9817C199.571 41.4434 199.414 41.8555 199.154 42.2178C198.901 42.5802 198.57 42.8666 198.163 43.077C197.763 43.2816 197.319 43.3839 196.83 43.3839ZM196.939 42.4458C197.21 42.4458 197.458 42.3873 197.683 42.2704C197.909 42.1535 198.093 41.984 198.237 41.7619C198.386 41.5398 198.478 41.2797 198.512 40.9817C198.548 40.6777 198.516 40.4176 198.417 40.2014C198.326 39.9793 198.18 39.8098 197.982 39.6929C197.784 39.576 197.552 39.5175 197.288 39.5175C197.017 39.5175 196.769 39.576 196.544 39.6929C196.324 39.8098 196.14 39.9793 195.99 40.2014C195.842 40.4176 195.75 40.6777 195.714 40.9817C195.68 41.2797 195.712 41.5398 195.809 41.7619C195.907 41.984 196.052 42.1535 196.245 42.2704C196.443 42.3873 196.674 42.4458 196.939 42.4458ZM203.631 38.5882C204.008 38.5882 204.335 38.6612 204.612 38.8074C204.895 38.9535 205.104 39.1785 205.24 39.4824C205.376 39.7805 205.416 40.1663 205.362 40.6397L205.05 43.3225H203.947L204.242 40.78C204.29 40.365 204.226 40.0552 204.05 39.8507C203.879 39.6461 203.618 39.5438 203.265 39.5438C203.006 39.5438 202.77 39.5964 202.558 39.7016C202.346 39.8068 202.171 39.9646 202.035 40.1751C201.905 40.3796 201.822 40.6397 201.786 40.9554L201.511 43.3225H200.408L200.951 38.6408H202.001L201.855 39.9033L201.714 39.5175C201.914 39.2194 202.178 38.9915 202.508 38.8337C202.845 38.67 203.219 38.5882 203.631 38.5882ZM208.446 43.3839C207.993 43.3839 207.596 43.2845 207.254 43.0858C206.919 42.8812 206.669 42.6007 206.504 42.2441C206.34 41.8876 206.285 41.4668 206.342 40.9817C206.398 40.4965 206.55 40.0757 206.797 39.7192C207.044 39.3626 207.359 39.085 207.741 38.8863C208.129 38.6875 208.549 38.5882 209.002 38.5882C209.397 38.5882 209.739 38.6759 210.031 38.8512C210.323 39.0207 210.54 39.2808 210.682 39.6315C210.824 39.9822 210.863 40.4322 210.799 40.9817C210.736 41.5252 210.595 41.9753 210.378 42.3318C210.16 42.6825 209.886 42.9455 209.553 43.1209C209.221 43.2962 208.852 43.3839 208.446 43.3839ZM208.687 42.4458C208.952 42.4458 209.194 42.3873 209.414 42.2704C209.639 42.1535 209.827 41.984 209.976 41.7619C210.131 41.5398 210.226 41.2797 210.261 40.9817C210.296 40.6777 210.261 40.4176 210.157 40.2014C210.059 39.9793 209.911 39.8098 209.713 39.6929C209.52 39.576 209.292 39.5175 209.027 39.5175C208.762 39.5175 208.517 39.576 208.292 39.6929C208.072 39.8098 207.885 39.9793 207.73 40.2014C207.581 40.4176 207.489 40.6777 207.454 40.9817C207.419 41.2797 207.451 41.5398 207.549 41.7619C207.652 41.984 207.8 42.1535 207.993 42.2704C208.191 42.3873 208.423 42.4458 208.687 42.4458ZM210.016 43.3225L210.144 42.2178L210.332 40.9729L210.388 39.7279L210.726 36.8172H211.82L211.066 43.3225H210.016ZM215.422 43.3225L215.532 42.3757L215.493 42.174L215.685 40.517C215.723 40.1955 215.654 39.9471 215.48 39.7718C215.307 39.5906 215.024 39.5 214.629 39.5C214.365 39.5 214.098 39.5409 213.83 39.6227C213.567 39.7045 213.339 39.8185 213.146 39.9646L212.806 39.1668C213.081 38.9739 213.398 38.8307 213.756 38.7372C214.12 38.6379 214.491 38.5882 214.868 38.5882C215.55 38.5882 216.058 38.7518 216.39 39.0791C216.73 39.4006 216.86 39.9004 216.781 40.5784L216.463 43.3225H215.422ZM213.932 43.3839C213.579 43.3839 213.277 43.3254 213.025 43.2085C212.775 43.0858 212.588 42.9192 212.466 42.7088C212.349 42.4926 212.307 42.25 212.338 41.9811C212.369 41.7181 212.458 41.4814 212.606 41.271C212.76 41.0606 212.988 40.894 213.29 40.7712C213.593 40.6485 213.983 40.5871 214.459 40.5871H215.827L215.743 41.3148H214.454C214.078 41.3148 213.817 41.3762 213.674 41.4989C213.531 41.6158 213.449 41.7619 213.429 41.9373C213.406 42.136 213.467 42.2938 213.612 42.4107C213.757 42.5276 213.971 42.5861 214.254 42.5861C214.524 42.5861 214.773 42.5247 214.999 42.402C215.231 42.2792 215.408 42.098 215.53 41.8584L215.639 42.5159C215.501 42.7906 215.285 43.004 214.991 43.1559C214.703 43.3079 214.35 43.3839 213.932 43.3839ZM217.977 45.0847C217.747 45.0847 217.522 45.0468 217.302 44.9708C217.081 44.8948 216.902 44.7896 216.765 44.6552L217.299 43.8486C217.4 43.9479 217.517 44.0268 217.651 44.0853C217.786 44.1437 217.927 44.1729 218.074 44.1729C218.274 44.1729 218.441 44.1233 218.576 44.0239C218.712 43.9245 218.846 43.758 218.979 43.5242L219.323 42.9105L219.427 42.7789L221.69 38.6408H222.749L219.956 43.6995C219.768 44.0502 219.571 44.3278 219.365 44.5324C219.165 44.737 218.948 44.8802 218.715 44.962C218.488 45.0438 218.242 45.0847 217.977 45.0847ZM219.133 43.4891L217.568 38.6408H218.715L219.977 42.6825L219.133 43.4891ZM225.988 43.3225L226.649 37.6238L227.092 38.141H225.282L225.393 37.1854H227.847L227.135 43.3225H225.988ZM229.349 43.3225L230.01 37.6238L230.453 38.141H228.644L228.755 37.1854H231.208L230.497 43.3225H229.349ZM232.404 43.3839C232.204 43.3839 232.041 43.3167 231.915 43.1822C231.79 43.042 231.74 42.8666 231.764 42.6562C231.79 42.4341 231.881 42.2588 232.037 42.1302C232.194 41.9957 232.372 41.9285 232.572 41.9285C232.772 41.9285 232.935 41.9957 233.061 42.1302C233.187 42.2588 233.237 42.4341 233.212 42.6562C233.187 42.8666 233.096 43.042 232.939 43.1822C232.782 43.3167 232.604 43.3839 232.404 43.3839ZM236.341 43.4102C235.852 43.4102 235.425 43.2875 235.059 43.042C234.7 42.7965 234.435 42.4399 234.266 41.9724C234.097 41.4989 234.052 40.9261 234.13 40.254C234.207 39.5818 234.385 39.0119 234.663 38.5443C234.942 38.0709 235.289 37.7115 235.706 37.466C236.129 37.2205 236.584 37.0977 237.073 37.0977C237.567 37.0977 237.994 37.2205 238.354 37.466C238.714 37.7115 238.978 38.0709 239.147 38.5443C239.322 39.0119 239.371 39.5818 239.293 40.254C239.215 40.9261 239.034 41.4989 238.749 41.9724C238.471 42.4399 238.124 42.7965 237.707 43.042C237.29 43.2875 236.835 43.4102 236.341 43.4102ZM236.456 42.4195C236.744 42.4195 237.003 42.3435 237.232 42.1915C237.462 42.0337 237.655 41.7941 237.81 41.4726C237.971 41.1512 238.08 40.7449 238.137 40.254C238.194 39.7572 238.179 39.3509 238.093 39.0353C238.012 38.7138 237.875 38.4771 237.681 38.3252C237.487 38.1674 237.246 38.0884 236.958 38.0884C236.681 38.0884 236.425 38.1674 236.189 38.3252C235.96 38.4771 235.764 38.7138 235.604 39.0353C235.449 39.3509 235.343 39.7572 235.286 40.254C235.229 40.7449 235.241 41.1512 235.321 41.4726C235.407 41.7941 235.547 42.0337 235.741 42.1915C235.941 42.3435 236.179 42.4195 236.456 42.4195ZM242.279 43.4102C241.791 43.4102 241.364 43.2875 240.998 43.042C240.638 42.7965 240.374 42.4399 240.204 41.9724C240.036 41.4989 239.99 40.9261 240.068 40.254C240.146 39.5818 240.324 39.0119 240.602 38.5443C240.88 38.0709 241.228 37.7115 241.645 37.466C242.067 37.2205 242.523 37.0977 243.011 37.0977C243.506 37.0977 243.933 37.2205 244.293 37.466C244.652 37.7115 244.917 38.0709 245.085 38.5443C245.261 39.0119 245.309 39.5818 245.231 40.254C245.153 40.9261 244.972 41.4989 244.688 41.9724C244.41 42.4399 244.063 42.7965 243.646 43.042C243.229 43.2875 242.774 43.4102 242.279 43.4102ZM242.394 42.4195C242.683 42.4195 242.941 42.3435 243.171 42.1915C243.401 42.0337 243.594 41.7941 243.748 41.4726C243.909 41.1512 244.018 40.7449 244.075 40.254C244.133 39.7572 244.118 39.3509 244.031 39.0353C243.951 38.7138 243.813 38.4771 243.619 38.3252C243.426 38.1674 243.185 38.0884 242.897 38.0884C242.62 38.0884 242.364 38.1674 242.128 38.3252C241.898 38.4771 241.703 38.7138 241.542 39.0353C241.388 39.3509 241.282 39.7572 241.224 40.254C241.167 40.7449 241.179 41.1512 241.26 41.4726C241.346 41.7941 241.486 42.0337 241.679 42.1915C241.879 42.3435 242.118 42.4195 242.394 42.4195ZM247.658 43.3225L251.15 37.1854H252.279L254.357 43.3225H253.156L251.406 37.7904H251.865L248.84 43.3225H247.658ZM249.102 41.9022L249.515 41.008H252.851L253.056 41.9022H249.102ZM255.142 43.3225L255.854 37.1854H256.799L258.98 41.6655H258.485L261.662 37.1854H262.606L261.903 43.3225H260.818L261.324 38.8775H261.554L258.86 42.6211H258.348L256.488 38.8775H256.752L256.237 43.3225H255.142Z" fill="#8CBE19"/>
<path d="M190.914 82.2131H170.234L172.633 61.5334H193.313L190.914 82.2131Z" fill="#EBEDE8"/>
<path d="M217.674 82.2131H196.994L199.393 61.5334H220.074L217.674 82.2131Z" fill="#8CBE19"/>
<path d="M244.435 82.2131H223.754L226.153 61.5334H246.834L244.435 82.2131Z" fill="#EBEDE8"/>
<path d="M271.195 82.2131H250.514L252.914 61.5334H273.594L271.195 82.2131Z" fill="#EBEDE8"/>
<path d="M187.846 108.659H167.166L169.565 87.9788H190.245L187.846 108.659Z" fill="#EBEDE8"/>
<path d="M214.606 108.659H193.926L196.325 87.9788H217.006L214.606 108.659Z" fill="#EBEDE8"/>
<path d="M241.367 108.659H220.686L223.086 87.9788H243.766L241.367 108.659Z" fill="#EBEDE8"/>
<path d="M268.127 108.659H247.447L249.846 87.9788H270.527L268.127 108.659Z" fill="#EBEDE8"/>
<path d="M184.777 135.105H164.097L166.497 114.424H187.176L184.777 135.105Z" fill="#EBEDE8"/>
<path d="M211.538 135.105H190.858L193.257 114.424H213.937L211.538 135.105Z" fill="#EBEDE8"/>
<path d="M238.298 135.105H217.618L220.018 114.424H240.697L238.298 135.105Z" fill="#EBEDE8"/>
<path d="M265.058 135.105H244.379L246.778 114.424H267.458L265.058 135.105Z" fill="#EBEDE8"/>
<path d="M181.71 161.55H161.03L163.429 140.87H184.109L181.71 161.55Z" fill="#EBEDE8"/>
<path d="M208.47 161.55H187.79L190.189 140.87H210.869L208.47 161.55Z" fill="#EBEDE8"/>
<path d="M235.23 161.55H214.55L216.949 140.87H237.63L235.23 161.55Z" fill="#EBEDE8"/>
<path d="M261.991 161.55H241.31L243.709 140.87H264.39L261.991 161.55Z" fill="#EBEDE8"/>
<path d="M176.618 204.321C176.806 202.699 178.279 201.38 179.9 201.38H198.587C200.342 201.38 201.967 200.373 202.827 198.751C203.686 197.129 203.539 195.35 202.442 194.109L195.187 185.903C194.477 185.098 193.458 184.655 192.32 184.655H169.592C168.343 184.655 167.318 183.863 167.044 182.683L166.082 178.548C165.869 177.636 166.121 176.663 166.77 175.876C167.42 175.09 168.346 174.638 169.312 174.638H200.663C201.442 174.638 202.141 174.939 202.631 175.487L214.367 188.574C214.469 187.998 214.585 187.424 214.703 186.856L203.665 174.548C202.955 173.757 201.943 173.32 200.815 173.32H169.464C168.066 173.32 166.724 173.974 165.783 175.113C164.841 176.253 164.477 177.663 164.785 178.982L165.747 183.117C166.145 184.826 167.628 185.974 169.437 185.974H192.166C192.951 185.974 193.655 186.28 194.145 186.836L201.4 195.042C202.306 196.066 202.13 197.37 201.665 198.247C201.2 199.125 200.186 200.063 198.737 200.063H180.05C177.702 200.063 175.57 201.973 175.297 204.322L174.795 208.656C174.522 211.005 176.211 212.915 178.56 212.915H199.206C200.828 212.915 201.994 214.235 201.8 215.906C201.613 217.528 200.139 218.847 198.518 218.847H157.217L157.064 220.165H198.365C200.714 220.165 202.846 218.255 203.124 215.856C203.397 213.508 201.708 211.597 199.359 211.597H178.713C177.091 211.597 175.925 210.278 176.112 208.656L176.618 204.321Z" fill="#EBEDE8"/>
<path d="M222.044 177.966C221.654 181.328 214.532 190.252 214.532 190.252C214.532 190.252 209.482 181.328 209.871 177.966C210.26 174.604 213.302 171.879 216.664 171.879C220.026 171.879 222.434 174.604 222.044 177.966Z" fill="#8CBE19"/>
<path d="M218.102 179.937C219.493 178.624 219.673 176.555 218.504 175.316C217.335 174.077 215.259 174.137 213.868 175.45C212.477 176.763 212.296 178.832 213.465 180.071C214.635 181.31 216.71 181.25 218.102 179.937Z" fill="white"/>
<path d="M163.108 223.019C165.282 220.967 165.564 217.735 163.737 215.798C161.91 213.862 158.666 213.956 156.492 216.007C154.317 218.059 154.036 221.292 155.863 223.228C157.69 225.164 160.934 225.071 163.108 223.019Z" fill="#8CBE19"/>
<path d="M161.507 221.323C162.63 220.264 162.775 218.595 161.832 217.596C160.888 216.596 159.214 216.645 158.092 217.704C156.97 218.762 156.825 220.431 157.768 221.431C158.711 222.43 160.385 222.382 161.507 221.323Z" fill="white"/>
<path d="M111.799 124.867C111.799 124.867 122.664 109.053 124.386 105.289C126.108 101.526 126.295 98.3255 123.596 96.3705C120.896 94.4154 115.921 92.8819 111.523 99.0787C107.126 105.276 98.9965 124.31 98.6639 130.265C98.3314 136.22 125.26 154.25 127.653 155.415C130.291 154.726 131.41 150.787 131.41 150.787C131.41 150.787 114.022 128.712 111.799 124.867Z" fill="#FFB301"/>
<path d="M120.713 255.704C120.713 255.704 121.258 258.829 119.473 263.54C117.687 268.251 117.588 269.74 119.473 270.781C121.357 271.822 122.697 272.12 127.954 270.781C133.21 269.442 139.063 266.515 139.063 266.515C139.063 266.515 133.36 262.895 131.971 261.357C130.582 259.819 127.656 254.315 127.706 253.521C127.755 252.729 120.713 255.704 120.713 255.704Z" fill="#F79E77"/>
<path d="M135.009 263.796C132.894 265.206 130.873 266.748 128.164 266.361C125.989 265.817 125.174 263.642 123.814 262.011C122.877 261.261 121.423 261.029 120.164 261.403C119.986 262.07 119.76 262.784 119.474 263.54C117.688 268.251 117.589 269.74 119.474 270.781C121.358 271.822 122.698 272.12 127.955 270.781C133.211 269.442 139.064 266.515 139.064 266.515C139.064 266.515 136.969 265.186 135.009 263.796Z" fill="#57633C"/>
<path d="M184.482 92.9728L191.066 95.8067C193.248 93.1011 194.888 91.0622 195.959 90.8406C198.746 91.2141 199.942 90.035 200.687 89.0828C201.433 88.1314 200.5 87.5859 200.622 87.2211C201.392 86.0882 200.086 85.6431 200.295 85.3752C201.104 84.4308 200.954 83.9194 200.466 83.661C199.978 83.4027 199.156 83.1627 199.307 82.6879C199.458 82.2131 201.461 80.9475 203.203 80.1228C204.944 79.298 206.859 77.9748 205.799 77.2792C204.739 76.5836 194.847 81.3359 192.996 83.3634C191.145 85.3909 191.622 87.5493 189.3 89.7827C188.458 90.5936 186.591 91.7928 184.482 92.9728Z" fill="#FFB797"/>
<path d="M127.59 254.745C127.59 254.745 128.053 261.159 126.004 266.384C123.953 271.607 124.549 273.922 128.252 274.981C131.955 276.039 134.005 273.526 138.833 273.658C143.66 273.791 150.074 273.261 151.727 268.831C153.38 264.401 145.663 266.38 140.991 264.993C136.319 263.606 138.396 255.407 138.396 255.407L127.59 254.745Z" fill="#FFAE83"/>
<path d="M141.122 264.9C140.703 266.304 144.513 267.786 143.388 268.536C139.31 271.526 134.416 266.361 129.795 264.73C128.853 264.259 127.731 264.243 126.636 264.469C126.458 265.115 126.249 265.758 126.004 266.384C123.953 271.608 124.549 273.922 128.252 274.981C131.955 276.038 134.005 273.526 138.833 273.658C143.66 273.791 152.791 272.876 154.444 268.446C156.08 264.059 145.806 266.206 141.122 264.9Z" fill="#57633C"/>
<path d="M153.876 266.329C153.85 266.433 153.82 266.538 153.779 266.65C152.125 271.08 142.994 271.995 138.167 271.862C133.34 271.729 131.289 274.243 127.586 273.184C126.315 272.821 125.42 272.305 124.862 271.579C125.021 273.339 126.117 274.37 128.25 274.979C131.954 276.037 134.004 273.524 138.83 273.657C143.658 273.789 152.789 272.875 154.442 268.444C154.822 267.43 154.557 266.768 153.876 266.329Z" fill="#57633C"/>
<path d="M135.393 172.483C132.865 171.286 131.166 169.507 130.064 167.539C127.88 163.638 128.055 158.987 128.846 156.613C130.037 153.042 134.798 144.049 134.798 144.049L123.093 141.884C123.093 141.884 117.836 150.96 115.158 158.102C112.479 165.244 114.662 172.782 115.951 178.436C117.24 184.09 120.514 200.258 119.125 206.308C117.737 212.359 115.158 221.584 115.852 228.626C116.547 235.669 120.018 252.432 119.919 256.201C121.091 256.725 122.238 256.903 123.297 256.877C126.456 256.801 128.846 254.911 128.846 254.911C128.846 254.911 129.64 226.046 132.616 213.35C135.591 200.653 138.567 177.046 135.393 172.483Z" fill="#57633C"/>
<path d="M135.393 172.483C132.866 171.286 131.166 169.507 130.064 167.539C125.111 165.198 128.564 156.108 128.163 150.497C126.202 155.914 118.699 165.677 128.952 177.842C132.601 181.231 129.039 207.82 125.91 219.811C123.106 229.978 124.331 246.307 124.827 256.697C127.194 256.211 128.846 254.911 128.846 254.911C128.846 254.911 129.639 226.046 132.615 213.35C135.591 200.653 138.567 177.046 135.393 172.483Z" fill="#57633C"/>
<path d="M154.107 143.916C154.107 143.916 157.546 157.01 156.488 171.028C155.43 185.047 146.04 208.589 144.982 213.747C143.925 218.905 142.47 233.737 141.147 240.406C139.825 247.075 139.163 253.291 139.891 255.01C136.783 258.317 128.516 257.92 126.665 255.01C127.327 241.388 126.996 229.684 129.575 220.492C132.154 211.3 130.567 208.92 131.625 203.166C132.683 197.413 133.741 179.625 134.271 177.509C134.8 175.393 129.51 174.335 127.592 170.896C125.675 167.457 121.707 159.191 132.684 142.329C144.386 141.932 154.107 143.916 154.107 143.916Z" fill="#57633C"/>
<path d="M154.108 143.916C154.108 143.916 144.386 141.932 132.682 142.33C132.462 142.667 132.258 142.996 132.051 143.327C141.704 143.45 149.097 144.958 149.097 144.958C149.097 144.958 152.536 158.052 151.478 172.071C150.42 186.089 142.921 209.24 141.863 214.398C140.805 219.556 140.386 233.716 139.064 240.385C137.923 246.136 137.715 253.291 138.145 256.258C138.816 255.922 139.419 255.515 139.891 255.011C139.164 253.292 139.824 247.076 141.148 240.407C142.47 233.738 143.925 218.906 144.983 213.748C146.04 208.59 155.431 185.049 156.488 171.029C157.546 157.01 154.108 143.916 154.108 143.916Z" fill="#57633C"/>
<path d="M148.09 64.8281C148.09 64.8281 149.081 76.5985 147.759 80.2353C146.436 83.8722 145.113 86.5177 144.386 87.2447C143.659 87.9717 140.158 86.6494 139.462 87.2447C138.766 87.8399 138.832 94.6511 138.832 94.6511L129.111 94.254C129.111 94.254 130.235 81.9547 131.095 78.5823C131.954 75.2099 147.098 64.5636 148.09 64.8281Z" fill="#FFAE83"/>
<path d="M125.078 94.0236C125.078 94.0236 132.616 90.254 138.767 93.2302C144.916 96.2055 154.538 108.704 156.026 111.085C157.514 113.466 158.505 118.822 156.026 123.682C153.546 128.542 154.439 142.825 155.728 145.305C145.313 148.38 129.145 146.396 121.706 143.123C125.872 137.072 128.055 134.791 125.079 128.145C122.102 121.499 118.531 102.653 125.078 94.0236Z" fill="#FFB301"/>
<path d="M151.343 124.598C153.823 119.738 152.831 114.381 151.343 112.001C149.855 109.62 140.234 97.1228 134.084 94.1466C131.96 93.1185 129.675 92.9047 127.587 93.053C126.058 93.5383 125.078 94.0236 125.078 94.0236C118.531 102.653 122.101 121.5 125.078 128.145C128.053 134.79 125.871 137.072 121.705 143.123C127.965 145.877 140.405 147.718 150.398 146.4C150.615 146.342 150.833 146.284 151.046 146.221C149.756 143.742 148.864 129.459 151.343 124.598Z" fill="#FFB301"/>
<path d="M163.068 108.406C163.068 108.406 147.372 97.3725 143.626 95.6103C139.881 93.8482 136.683 93.6265 134.7 96.3051C132.716 98.9836 131.129 103.943 137.279 108.406C143.428 112.87 162.374 121.202 168.325 121.598C174.277 121.995 192.594 95.2612 193.784 92.8803C193.123 90.2348 189.197 89.074 189.197 89.074C189.197 89.074 166.936 106.224 163.068 108.406Z" fill="#FFD501"/>
<path d="M137.278 108.406C137.07 108.254 136.89 108.111 136.698 107.965C136.883 108.112 137.076 108.26 137.278 108.406Z" fill="#FF69A6"/>
<path d="M134.315 98.8955C136.299 96.2169 139.498 96.4395 143.242 98.2008C146.987 99.9629 162.085 109.829 162.085 109.829C165.954 107.647 189.195 89.0732 189.195 89.0732C189.195 89.0732 166.936 106.224 163.067 108.406C163.067 108.406 147.371 97.3725 143.626 95.6103C139.881 93.8482 136.683 93.6265 134.699 96.3051C133.771 97.5584 132.93 99.3109 132.927 101.278C133.205 100.469 133.723 99.6958 134.315 98.8955Z" fill="#FFD815"/>
<path d="M147.363 59.2737C142.866 54.7771 134.534 53.0577 134.534 53.0577C127.463 50.6567 121.97 57.2899 120.382 63.2414C118.796 69.1929 119.576 76.1176 117.143 83.9377C115.912 87.7492 98.3017 115.025 121.389 134.781C127.257 137.68 131.749 138.956 138.093 134.063C131.409 118.173 133.521 102.923 134.869 98.3509C136.172 93.9293 138.85 93.7653 141.306 94.6782C141.418 94.7218 141.528 94.7646 141.643 94.8109C141.415 94.3631 141.119 93.8482 140.769 93.2835C139.531 89.5951 140.696 81.9443 143.229 79.243C146.204 76.0687 147.594 70.9114 148.09 67.1418C148.784 71.6053 147.197 74.3825 146.106 75.9701C150.371 72.6971 151.859 63.7703 147.363 59.2737Z" fill="#57633C"/>
<path d="M119.047 118.407C116.44 100.16 123.739 81.3909 130.517 64.1866C132.545 58.9132 138.361 56.4817 144.28 56.8892C139.849 54.1566 134.534 53.0577 134.534 53.0577C127.463 50.6567 121.97 57.2899 120.382 63.2414C118.796 69.1929 119.576 76.1176 117.143 83.9377C115.912 87.7492 98.3017 115.025 121.389 134.781C126.133 137.125 129.978 138.406 134.628 136.227C132.645 135.874 130.323 134.578 129.83 134.179C124.617 130.53 120.09 124.664 119.047 118.407Z" fill="#57633C"/>
</svg>
