<svg width="221" height="271" viewBox="0 0 221 271" fill="none" xmlns="http://www.w3.org/2000/svg">
<path d="M76.432 246.765L26.6209 218.119C25.2108 217.306 25.3891 215.884 27.0157 214.945L146.616 145.894C148.244 144.955 150.704 144.851 152.114 145.667L201.924 174.313C203.334 175.125 203.157 176.547 201.531 177.487L81.9306 246.537C80.3025 247.476 77.8421 247.577 76.432 246.765Z" fill="#F0EEEE"/>
<path d="M165.085 270.363L115.274 241.717C113.865 240.904 114.042 239.484 115.668 238.543L164.438 210.538C166.065 209.599 168.527 209.497 169.937 210.311L219.748 238.955C221.157 239.769 220.98 241.191 219.352 242.13L170.583 270.136C168.955 271.075 166.493 271.178 165.085 270.363Z" fill="#F0EEEE"/>
<path d="M51.4607 200.815L1.64959 172.169C0.241008 171.357 0.417819 169.936 2.0444 168.995L50.8143 140.99C52.4424 140.051 54.9029 139.948 56.313 140.762L106.124 169.407C107.533 170.221 107.356 171.642 105.729 172.581L56.9593 200.588C55.3312 201.527 52.8708 201.629 51.4607 200.815Z" fill="#F0EEEE"/>
<path d="M51.9592 152.821L47.7014 150.345L46.4604 101.566L50.7198 104.04L51.9592 152.821Z" fill="#B87847"/>
<path d="M50.7198 104.04L46.4604 101.566L54.6559 96.8344L58.9137 99.3086L50.7198 104.04Z" fill="#E29B65"/>
<path d="M58.9146 99.3085L57.8856 149.4L51.9601 152.821L50.7207 104.04L58.9146 99.3085Z" fill="#814F2C"/>
<path d="M85.6979 156.638L87.4526 155.618L87.4327 162.234L85.6812 163.254L85.6979 156.638Z" fill="#5E3A23"/>
<path d="M53.9058 138.282L55.6589 137.264L87.4526 155.618L85.6979 156.638L53.9058 138.282Z" fill="#E29B65"/>
<path d="M85.6987 156.638L85.6819 163.254L53.8882 144.899L53.9065 138.282L85.6987 156.638Z" fill="#B87847"/>
<path d="M87.9444 173.59L83.6867 171.114L82.4458 122.335L86.7035 124.81L87.9444 173.59Z" fill="#B87847"/>
<path d="M86.7035 124.809L82.4458 122.335L90.6397 117.603L94.8974 120.079L86.7035 124.809Z" fill="#E29B65"/>
<path d="M94.897 120.079L93.8696 170.169L87.944 173.59L86.7031 124.81L94.897 120.079Z" fill="#814F2C"/>
<path d="M18.9665 171.924L14.7072 169.448L13.4663 120.669L17.7241 123.145L18.9665 171.924Z" fill="#B87847"/>
<path d="M17.7241 123.145L13.4663 120.669L21.6602 115.939L25.9195 118.415L17.7241 123.145Z" fill="#E29B65"/>
<path d="M25.919 118.415L24.8916 168.503L18.966 171.924L17.7236 123.145L25.919 118.415Z" fill="#814F2C"/>
<path d="M52.7039 175.741L54.457 174.722L54.4387 181.337L52.6855 182.357L52.7039 175.741Z" fill="#5E3A23"/>
<path d="M20.9102 157.385L22.6648 156.367L54.457 174.722L52.7039 175.741L20.9102 157.385Z" fill="#E29B65"/>
<path d="M52.7035 175.741L52.6852 182.357L20.8931 164.001L20.9098 157.385L52.7035 175.741Z" fill="#B87847"/>
<path d="M54.9483 192.693L50.6891 190.217L49.4497 141.438L53.7074 143.914L54.9483 192.693Z" fill="#B87847"/>
<path d="M53.7074 143.914L49.4497 141.438L57.6436 136.708L61.9028 139.183L53.7074 143.914Z" fill="#E29B65"/>
<path d="M61.9034 139.183L60.8744 189.272L54.9489 192.693L53.708 143.914L61.9034 139.183Z" fill="#814F2C"/>
<path d="M10.4746 112.971L10.5112 125.788L52.5186 150.199L52.4805 137.383L10.4746 112.971Z" fill="#B87847"/>
<path d="M52.481 137.383L52.5191 150.199L97.6089 124.195L97.5724 111.378L52.481 137.383Z" fill="#814F2C"/>
<path d="M10.4746 112.971L52.4805 137.383L97.5719 111.378L55.566 86.9654L10.4746 112.971Z" fill="#E29B65"/>
<path d="M16.7495 112.978L55.5603 90.5996L91.2992 111.369L52.487 133.747L16.7495 112.978Z" fill="#B87847"/>
<path d="M62.1855 128.172L61.0543 128.829L25.2041 108.13L26.3368 107.475L62.1855 128.172Z" fill="#814F2C"/>
<path d="M72.6052 122.162L71.4787 122.811L35.6284 102.108L36.7504 101.458L72.6052 122.162Z" fill="#814F2C"/>
<path d="M83.0257 116.143L81.8992 116.794L46.0474 96.0906L47.1755 95.4412L83.0257 116.143Z" fill="#814F2C"/>
<path d="M79.8551 42.9988C80.8765 44.3327 81.7546 45.7779 82.8842 47.0218C84.026 48.2795 85.398 49.3039 86.7776 50.2917C89.9195 52.5388 93.1803 54.6638 95.906 57.3987C98.6301 60.135 100.819 63.597 101.229 67.4356C101.293 68.0423 101.309 68.6795 101.059 69.2375C100.644 70.1659 99.5647 70.6567 98.5463 70.6613C97.5295 70.6674 96.5539 70.2802 95.6194 69.8747C91.4805 68.0789 87.5505 65.8334 83.7638 63.3791C77.9252 59.5984 72.3382 55.2401 68.2008 49.6484C66.5438 47.409 65.1062 44.9181 64.6337 42.171C64.3775 40.6893 64.4248 39.1023 65.1138 37.7654C65.4202 37.1724 66.1459 36.7578 66.3868 36.183C66.4813 35.9589 66.3349 34.2363 66.1032 34.2302C68.4538 34.2851 70.7344 35.1464 72.7269 36.3904C75.4434 38.0825 77.916 40.4622 79.8551 42.9988Z" fill="#F8A37A"/>
<path d="M101.69 55.4688C103.533 59.4948 104.19 64.1413 103.053 68.422C102.768 69.4921 102.28 70.6385 101.269 71.0897C100.464 71.4495 99.5269 71.2711 98.6854 71.0044C96.5771 70.3382 94.5832 69.0958 93.3971 67.2314C92.5053 65.8335 92.1106 64.1307 92.2645 62.4782C92.3575 61.4583 92.6532 60.469 92.8087 59.4552C93.4688 55.1883 91.6699 50.9747 90.9199 46.7215L90.923 46.5722L91.0571 46.4594C92.5663 45.6788 94.0755 44.8999 95.5862 44.1193C96.2646 43.7702 97.7052 43.4059 97.7281 44.6377C97.7327 44.9181 97.5482 45.1788 97.5177 45.4563C97.4705 45.9212 97.6229 46.4426 97.7311 46.8908C98.2068 48.8695 99.1839 50.679 100.143 52.4565C100.678 53.4504 101.221 54.4428 101.69 55.4688Z" fill="#F8A37A"/>
<path d="M73.8745 114.267C77.9768 112.455 82.6751 112.628 87.1052 113.314C91.776 114.039 96.3463 115.294 100.828 116.776C103.109 117.53 105.369 118.344 107.621 119.181C108.609 119.428 109.612 119.91 110.559 120.283C111.391 120.613 112.275 120.761 113.161 120.945C114.292 121.183 115.478 121.447 116.345 122.212C116.832 122.642 117.184 123.201 117.518 123.759C117.87 124.337 118.211 124.924 118.49 125.541C119.589 127.985 119.611 130.75 119.285 133.43C119.211 135.569 118.974 137.702 118.612 139.802C118.217 142.101 117.673 144.372 117.021 146.61C115.112 153.165 112.324 159.423 109.749 165.747C108.572 168.629 107.45 171.958 108.827 174.749C109.44 175.99 110.482 176.957 111.534 177.855C113.839 179.817 116.304 181.59 118.899 183.15C120.068 183.851 121.292 184.535 122.149 185.595C123.629 187.427 123.724 189.996 123.55 192.345C123.515 192.828 123.43 193.382 123.018 193.636C122.744 193.805 122.396 193.79 122.076 193.76C118.913 193.47 115.835 192.308 113.268 190.44C111.26 188.975 109.537 187.074 107.293 186.003C104.31 184.579 100.776 184.799 97.7198 183.543C96.7488 183.145 95.8067 182.572 95.2366 181.692C94.389 180.389 94.517 178.662 95.0536 177.206C95.5902 175.748 96.4851 174.453 97.1467 173.05C99.1665 168.762 98.886 163.808 99.0111 159.07C99.2184 151.089 100.753 143.059 103.95 135.772C101.455 134.83 98.9821 133.828 96.514 132.819C93.1511 131.444 89.7882 130.067 86.4253 128.692C82.3611 127.029 78.2939 125.364 74.3624 123.411C72.4081 122.441 70.2403 121.024 70.1336 118.846C70.0345 116.75 71.9568 115.114 73.8745 114.267Z" fill="#F79263"/>
<path d="M109.647 117.294C112.776 119.247 115.936 121.224 118.515 123.861C116.382 124.805 114.713 126.601 113.542 128.616C112.371 130.631 111.652 132.874 110.99 135.108C109.48 135.31 107.984 134.743 106.563 134.197C93.4578 129.169 79.7942 124.998 68.2405 117.029C67.713 116.664 67.1627 116.256 66.9508 115.651C66.777 115.152 66.8685 114.603 66.9813 114.087C67.9799 109.521 70.6263 105.059 69.672 100.484C69.4631 99.4916 69.0881 98.5297 69.0134 97.5175C68.8168 94.8345 71.3763 92.9472 73.8474 94.2521C74.7423 94.7262 75.3825 95.6272 76.1493 96.2689C77.4481 97.3574 79.0046 98.1714 80.4391 99.0678C86.6542 102.946 92.8694 106.824 99.0845 110.702C102.606 112.901 106.127 115.097 109.647 117.294Z" fill="#57633C"/>
<path d="M87.1408 159.447C85.0462 165.84 82.6269 172.244 82.2534 178.961C82.1589 180.686 82.2031 182.445 82.7031 184.098C83.0995 185.409 83.7718 186.618 84.4364 187.815C87.1819 192.748 89.9259 197.683 92.6699 202.614C93.0403 203.278 93.4199 204.053 93.1516 204.765C92.8193 205.64 91.7202 205.894 90.7888 205.989C88.0463 206.262 85.2306 206.225 82.5994 205.408C79.9683 204.59 77.5276 202.92 76.1907 200.51C75.6358 199.508 75.2822 198.408 74.7715 197.384C73.8263 195.482 72.3674 193.888 71.247 192.086C70.1235 190.282 69.3308 188.086 69.9283 186.048C70.2515 184.939 70.9543 183.988 71.4695 182.956C72.6418 180.602 72.8095 177.861 72.5412 175.244C72.2759 172.628 71.5991 170.07 71.1646 167.477C70.2607 162.077 70.4146 156.505 71.6128 151.164C72.6327 146.625 74.5428 142.063 78.1527 139.127C80.9271 136.871 86.938 134.362 89.5723 138.214C90.4122 139.442 90.3741 141.109 90.3802 142.531C90.3909 145.169 90.1378 147.774 89.6271 150.364C89.0219 153.446 88.1164 156.463 87.1408 159.447Z" fill="#F8A37A"/>
<path d="M79.2088 111.466C78.8216 115.25 77.6142 119.053 78.349 122.784C80.0411 131.378 90.9393 135.448 93.3906 143.855C90.9683 142.595 88.2244 141.538 85.5566 142.127C82.8827 142.719 80.8567 144.824 78.7256 146.548C75.0471 149.522 70.6171 151.56 65.9645 152.417C63.9431 152.791 61.789 152.931 59.8926 152.136C59.4124 151.934 58.9383 151.656 58.6609 151.216C58.4185 150.829 58.3544 150.361 58.2965 149.908C57.9825 147.483 57.6685 145.055 57.3545 142.63C57.2005 141.444 57.0358 140.226 56.455 139.182C55.7903 137.991 54.6546 137.153 53.5646 136.333C48.4242 132.468 43.5643 128.229 39.0368 123.66C38.3111 122.928 37.5855 122.174 37.1114 121.257C36.7029 120.463 36.5001 119.582 36.3309 118.706C34.4314 108.847 36.3567 98.3011 41.6176 89.7505C42.799 92.0493 45.4744 93.1774 48.0294 93.5677C51.621 94.118 55.2797 93.5738 58.8728 93.028C61.8058 92.5844 64.7388 92.1393 67.6718 91.6957C69.6079 91.403 71.7025 91.1347 73.422 92.0646C76.2621 93.5936 76.5791 96.7156 77.5929 99.4108C79.0365 103.249 79.6265 107.378 79.2088 111.466Z" fill="#57633C"/>
<path d="M49.5123 37.6481C52.9758 36.485 56.5553 35.6816 60.1972 35.3279C61.7368 35.1786 63.2857 35.1084 64.8345 35.0688C66.1333 35.0353 67.58 34.8127 68.8498 35.0734C70.981 35.5093 72.8775 36.8234 74.2281 38.5277C75.2784 39.8555 76.0162 41.4089 76.4979 43.0264C76.9934 44.685 77.0056 46.432 77.1215 48.1531C77.306 50.9336 77.3791 53.7219 77.3425 56.5085C77.2785 61.0986 76.9126 65.6841 76.2449 70.2239C75.9111 72.4953 75.5041 74.7545 75.0193 76.9985C74.8135 77.9635 74.411 79.0138 74.4568 79.9956C74.5071 81.0657 74.5818 82.1496 74.6184 83.2289C74.7815 88.1498 74.9659 93.0844 75.7053 97.952C75.7617 98.327 75.8181 98.7279 75.658 99.0709C75.5132 99.3819 75.2144 99.5907 74.9217 99.7675C73.1945 100.816 71.2036 101.336 69.2234 101.731C59.3679 103.701 48.9666 102.865 39.5532 99.3499C39.0334 99.1547 38.4998 98.9428 38.1004 98.5587C37.0668 97.5739 37.2635 95.9092 37.483 94.4991C38.8398 85.8387 38.1751 77.0046 37.5089 68.2635C37.2284 64.5835 36.9418 60.8699 35.8884 57.3317C35.4372 55.8179 34.7085 54.4063 34.2116 52.9093C33.8518 51.8285 33.7603 50.1897 32.3441 49.9824L32.0697 49.894C31.9188 49.7659 31.995 49.522 32.0849 49.3467C33.6216 46.3786 36.0912 43.9014 39.0547 42.3526C42.4603 40.572 45.8567 38.8753 49.5123 37.6481Z" fill="#FDDCBC"/>
<path d="M64.898 43.7598C64.8965 43.9122 64.8919 44.0738 64.8035 44.1973C64.7135 44.3269 64.5535 44.3833 64.4025 44.429C61.9528 45.1867 59.2896 44.9656 56.8139 44.2949C54.7285 43.7293 52.7284 42.8497 50.9021 41.6957C49.7725 40.9823 48.6521 40.0874 48.2298 38.8206C48.1673 38.6331 48.1215 38.4334 48.1536 38.2367C48.1962 37.9776 48.37 37.7611 48.5255 37.5492C49.8335 35.7778 50.2832 33.5171 50.4494 31.3219C50.6171 29.1267 50.5393 26.9041 50.9494 24.7409C52.736 28.7197 56.1355 31.9439 60.2012 33.5171C61.3902 33.979 62.2562 33.9165 63.4681 33.6543C64.2151 33.4927 65.1511 32.5978 65.1328 31.7457C65.1754 33.8372 65.18 35.9287 65.1434 38.0188C65.1083 39.9365 64.9102 41.8573 64.898 43.7598Z" fill="#F8A37A"/>
<path d="M72.1762 17.9067C72.2738 21.3305 71.8393 24.7453 71.4063 28.1433C71.1014 30.5412 70.7965 32.9392 70.4917 35.3371C70.3026 36.8219 69.9886 38.5095 68.7081 39.2854C67.8331 39.8159 66.737 39.7626 65.7171 39.6711C61.4045 39.2885 56.9775 38.4988 53.3722 36.1039C52.9942 35.8524 52.6115 35.5673 52.4194 35.1557C52.2716 34.8401 52.2517 34.4834 52.2334 34.1359C52.174 32.9986 52.1146 31.8644 52.0566 30.7287C49.4834 29.3323 47.8141 26.6935 46.7363 23.9739C45.5533 20.9906 44.9467 17.7268 45.4192 14.5544C45.9345 11.1168 47.7836 7.50083 50.5459 5.29191C51.1435 4.81324 51.7975 4.40775 52.4743 4.04951C55.3921 2.50677 58.8419 1.88633 62.0646 2.60129C64.6028 3.16381 66.9214 4.58916 68.6471 6.52673C70.5267 8.6396 71.2523 11.0009 71.7524 13.7236C72.0054 15.1032 72.1366 16.5057 72.1762 17.9067Z" fill="#FDDCBC"/>
<path d="M46.098 10.1046C46.6087 11.0314 46.8785 11.8821 48.1164 11.9247C49.0905 11.9613 50.0006 11.3439 50.7872 10.8439C51.8894 10.1442 52.99 9.44601 54.0906 8.74629C54.6592 8.38652 55.2401 8.02066 55.891 7.84992C58.0267 7.29502 58.6411 9.26307 58.699 10.972C58.7646 12.9065 59.6914 14.7587 60.5481 16.463C60.6289 16.6215 60.7143 16.7923 60.7006 16.9706C60.6823 17.21 60.4948 17.3975 60.3119 17.553C59.2478 18.4509 57.9093 18.9951 56.9017 19.957C55.4215 21.3671 54.8437 23.4861 53.5373 25.0593C53.2949 23.2727 52.2872 21.6004 50.8207 20.5485C50.2383 20.1323 49.5097 19.8 48.8176 19.989C47.0737 20.4647 46.97 23.2651 47.0264 24.6904C44.7413 20.6948 44.1467 15.7648 45.4196 11.3394C45.5507 10.882 45.723 10.3988 46.098 10.1046Z" fill="#67271C"/>
<path d="M50.1818 4.25061L50.4821 4.08598C51.1529 3.69115 51.7215 3.14691 52.3312 2.66671C55.1347 0.454751 58.9565 -0.430943 62.4337 0.386157C63.6914 0.681899 64.8926 1.18495 66.0345 1.78711C67.4324 2.52189 68.7647 3.42131 69.8089 4.6058C71.0193 5.97932 72.0026 7.93671 71.5498 9.79957C71.3425 10.6578 70.8089 11.5664 69.972 11.9003C69.0665 12.2585 68.1198 12.5054 67.161 12.6686C65.2432 12.9933 63.263 12.9948 61.3407 12.7158C60.3788 12.5756 59.429 12.3515 58.5067 12.039C57.7552 11.7844 56.868 11.1182 56.0905 10.9078L55.874 10.8621C55.0599 10.7371 54.0874 11.6762 53.3496 11.9704C52.3968 12.3515 51.38 12.568 50.3556 12.6C49.2961 12.632 48.232 12.4689 47.232 12.1243C46.5536 11.8911 45.8996 11.6838 45.5261 11.0298C45.1267 10.3346 45.0231 9.49163 45.1374 8.70654C45.2853 7.68822 45.8341 6.25677 46.5902 5.54028C47.1039 5.05093 47.7899 4.81618 48.4851 4.74453C49.1574 4.6744 49.6314 4.53873 50.1818 4.25061Z" fill="#823220"/>
<path d="M55.1634 76.6251L54.7655 76.5763C54.5826 76.5168 54.4301 76.3857 54.3067 76.2348C54.0445 75.9055 53.924 75.4802 53.8905 75.0579C53.8692 74.8079 53.8798 74.5472 53.9804 74.3171C54.5079 73.099 57.0918 73.2362 57.6543 74.375C58.3906 75.8644 56.2839 76.6159 55.1634 76.6251Z" fill="#F8A37A"/>
<path d="M75.1402 71.4558L74.9892 71.4116L74.8642 71.2378C74.5319 70.5152 74.4526 69.6798 74.6432 68.9054C74.791 68.3093 75.1737 67.6432 75.8582 67.5959C76.3978 67.5578 76.9359 68.0334 76.9847 68.5715C77.0548 69.3414 76.0259 71.5137 75.1402 71.4558Z" fill="#F8A37A"/>
<path d="M87.983 45.5187C87.983 45.5187 87.4967 44.2047 87.0394 43.79C86.5821 43.3739 86.6339 43.1071 83.3335 42.4455C80.0346 41.7808 82.6459 43.7717 82.6459 43.7717L83.2465 44.3144L83.3411 43.8784L87.8122 45.4578L87.983 45.5187Z" fill="#DBD9D8"/>
<path d="M86.8528 45.1696C86.8528 45.1696 86.8437 46.5584 84.371 47.1529C81.8968 47.7459 81.7368 47.7566 81.7368 47.7566L82.6408 49.3878L83.3938 49.06L85.0464 48.5798L86.4732 47.9441L87.551 46.9227L87.8178 45.9181L87.4763 44.9913L86.8528 45.1696Z" fill="#DBD9D8"/>
<path d="M83.3418 43.8784H83.415C84.0278 43.8906 84.6406 43.9547 85.2412 44.0659C86.1086 44.2275 87.1056 44.4958 87.7413 45.1483C88.1041 45.5218 88.1438 46.0325 88.0569 46.5249C87.8099 47.9289 84.8083 48.9411 84.8083 48.9411L82.4424 49.6393L82.6924 48.9289C82.6924 48.9289 84.5888 48.7521 86.476 47.5782C86.7855 47.3846 87.0508 47.1224 87.2124 46.7962C87.3496 46.5233 87.441 46.1727 87.3236 45.8068C87.2169 45.476 86.9501 45.226 86.6254 45.1056C85.9333 44.8464 84.3144 44.3053 83.4653 44.5599L83.2473 44.3144L83.3418 43.8784Z" fill="#DBD9D8"/>
<path d="M71.279 45.4273C68.4116 43.7017 68.5106 40.9516 71.4986 39.2853C74.4865 37.6207 79.232 37.6679 82.0995 39.3936C84.9655 41.1193 84.8663 43.8678 81.8784 45.534C78.8905 47.2003 74.145 47.153 71.279 45.4273Z" fill="#DBD9D8"/>
<path d="M71.9083 45.0753C69.3746 43.5508 69.4631 41.1224 72.1019 39.6498C74.7422 38.1772 78.936 38.2199 81.4696 39.7443C84.0017 41.2687 83.9148 43.6987 81.276 45.1713C78.6341 46.6439 74.4404 46.5997 71.9083 45.0753Z" fill="#DBD9D8"/>
<path d="M83.1348 43.2856C82.8513 43.9807 82.2308 44.6377 81.275 45.1713C78.6346 46.6424 74.4409 46.5997 71.9088 45.0752C71.0628 44.5661 70.5063 43.9548 70.2441 43.313C70.5277 42.6178 71.1481 41.9593 72.1024 41.4288C74.7428 39.9546 78.9365 39.9973 81.4701 41.5218C82.3147 42.0309 82.8711 42.6438 83.1348 43.2856Z" fill="#67B730"/>
<path d="M82.1719 44.5554C81.9158 44.7734 81.6154 44.9807 81.274 45.1713C78.6336 46.6424 74.4399 46.5997 71.9078 45.0752C71.6441 44.9182 71.4109 44.7505 71.2051 44.5737C71.4841 44.0569 71.9856 43.5752 72.7082 43.1712C74.9994 41.8937 78.6382 41.9318 80.838 43.2551C81.4706 43.6346 81.9143 44.0813 82.1719 44.5554Z" fill="#539432"/>
<path d="M84.1874 42.4701L84.1844 42.3405C84.2103 43.5006 83.4374 44.6653 81.8779 45.5342C78.89 47.2004 74.1444 47.1531 71.2785 45.4275C69.8669 44.5768 69.1733 43.4792 69.1915 42.3847C69.1656 44.0784 69.3424 45.5311 69.3775 45.8055C69.5177 46.8665 69.7418 47.5236 69.9232 47.9779C70.001 48.176 70.1733 48.5694 70.434 49.0023C70.7129 49.4657 70.9736 49.7691 71.0833 49.8987C71.248 50.0907 71.4187 50.26 71.5117 50.3484L71.8685 50.6609L72.2221 50.9338C72.4386 51.0862 72.4752 51.1106 72.7374 51.2737C72.8761 51.356 73.2039 51.5481 73.6185 51.728C73.9585 51.8728 74.2557 51.978 74.6125 52.0771C75.55 52.3393 76.3503 52.3515 76.614 52.3561C76.8458 52.3606 76.9372 52.3545 77.3214 52.3317L77.707 52.292C77.8442 52.2768 78.2452 52.2112 78.4891 52.1503C78.8397 52.0618 78.8397 52.0618 79.0745 51.9887C79.2269 51.9399 79.4281 51.8652 79.579 51.8073C79.5821 51.8057 79.7696 51.7341 80.0257 51.6106L80.4419 51.3957C80.7757 51.2143 81.0624 51.0084 81.1706 50.9322C81.442 50.7386 81.6752 50.5344 81.7499 50.4673C81.9313 50.3087 82.1356 50.0938 82.2225 49.9977C82.413 49.7828 82.5274 49.638 82.6951 49.4063C82.8856 49.138 83.1691 48.6898 83.4268 48.0815C83.6234 47.6151 83.7728 47.1288 83.8825 46.5906C83.9664 46.179 84.064 45.5937 84.1417 44.3893C84.16 44.0677 84.1753 43.7262 84.1844 43.371C84.186 43.2795 84.1905 43.0692 84.1905 42.8573C84.1905 42.6911 84.1874 42.499 84.1874 42.4701Z" fill="#DBD9D8"/>
<path d="M84.1874 42.4701L84.1844 42.3405C84.2103 43.5006 83.4374 44.6653 81.8779 45.5342C78.89 47.2004 74.1444 47.1531 71.2785 45.4275C69.8669 44.5768 69.1733 43.4792 69.1915 42.3847C69.1656 44.0784 69.3424 45.5311 69.3775 45.8055C69.5177 46.8665 69.7418 47.5236 69.9232 47.9779C70.001 48.176 70.1733 48.5694 70.434 49.0023C70.7129 49.4657 70.9736 49.7691 71.0833 49.8987C71.248 50.0907 71.4187 50.26 71.5117 50.3484L71.8685 50.6609L72.2221 50.9338C72.4386 51.0862 72.4752 51.1106 72.7374 51.2737C72.8761 51.356 73.2039 51.5481 73.6185 51.728C73.9585 51.8728 74.2557 51.978 74.6125 52.0771C75.55 52.3393 76.3503 52.3515 76.614 52.3561C76.8458 52.3606 76.9372 52.3545 77.3214 52.3317L77.707 52.292C77.8442 52.2768 78.2452 52.2112 78.4891 52.1503C78.8397 52.0618 78.8397 52.0618 79.0745 51.9887C79.2269 51.9399 79.4281 51.8652 79.579 51.8073C79.5821 51.8057 79.7696 51.7341 80.0257 51.6106L80.4419 51.3957C80.7757 51.2143 81.0624 51.0084 81.1706 50.9322C81.442 50.7386 81.6752 50.5344 81.7499 50.4673C81.9313 50.3087 82.1356 50.0938 82.2225 49.9977C82.413 49.7828 82.5274 49.638 82.6951 49.4063C82.8856 49.138 83.1691 48.6898 83.4268 48.0815C83.6234 47.6151 83.7728 47.1288 83.8825 46.5906C83.9664 46.179 84.064 45.5937 84.1417 44.3893C84.16 44.0677 84.1753 43.7262 84.1844 43.371C84.186 43.2795 84.1905 43.0692 84.1905 42.8573C84.1905 42.6911 84.1874 42.499 84.1874 42.4701Z" fill="#DBD9D8"/>
<path d="M84.19 42.8557C84.19 43.0676 84.1855 43.2811 84.184 43.371C84.1748 43.7262 84.1595 44.0677 84.1412 44.3909C84.0635 45.5937 83.9659 46.179 83.8821 46.5906C83.7723 47.1288 83.6229 47.6151 83.4263 48.0815C83.1687 48.6898 82.8851 49.138 82.6946 49.4063C82.5269 49.638 82.4125 49.7828 82.2204 49.9977C82.1351 50.0953 81.9308 50.3087 81.7494 50.4673C81.6747 50.5344 81.4415 50.7401 81.1702 50.9307C81.0619 51.0084 80.7753 51.2143 80.4414 51.3957L80.0253 51.6106C79.7692 51.7341 79.5817 51.8057 79.5801 51.8073C79.4277 51.8652 79.2265 51.9414 79.074 51.9887C78.8393 52.0618 78.8392 52.0618 78.4886 52.1503C78.2447 52.2112 77.8438 52.2768 77.7051 52.292L77.3209 52.3317C76.9368 52.3545 76.8453 52.3606 76.6136 52.3561C76.3758 52.3515 75.7005 52.3423 74.8818 52.1472C77.3072 50.8301 78.1457 48.3849 78.4262 46.6318C79.6823 46.4565 80.8789 46.0906 81.8774 45.5342C83.4095 44.682 84.1809 43.5433 84.1855 42.406L84.1869 42.4701C84.1885 42.499 84.19 42.6911 84.19 42.8557Z" fill="#DBD9D8"/>
<path d="M94.7484 47.4824C93.9023 47.7568 93.0807 48.1013 92.2605 48.4413C91.5822 48.7248 90.9037 49.0068 90.2269 49.2904C89.7772 49.4779 89.3 49.6684 88.8168 49.5998C88.3366 49.5312 87.8701 49.0968 87.9555 48.6181C87.2832 48.5693 86.617 48.4336 85.9798 48.2157C85.7771 48.1455 85.5698 48.0617 85.4295 47.9016C85.2893 47.74 85.2389 47.4778 85.3746 47.3132C84.9157 47.1866 84.4782 46.8833 84.3044 46.4366C84.1306 45.9915 84.2907 45.4076 84.7236 45.2003C84.1703 45.0265 83.806 44.3985 83.9249 43.8314C83.9721 43.6088 84.0834 43.406 84.1916 43.2063C85.3716 41.0554 86.7131 38.8846 88.7589 37.5263C89.4007 37.101 90.1232 36.758 90.89 36.7092C91.6599 36.6589 92.48 36.9455 92.9282 37.5705C93.0563 37.7504 93.1584 37.9562 93.3367 38.0842C93.4968 38.2001 93.6996 38.2336 93.8886 38.2885C94.7606 38.5446 95.4497 39.3373 95.5792 40.2367C95.5991 40.3785 95.6082 40.5279 95.6783 40.6544C95.7805 40.8404 95.9893 40.9349 96.1707 41.0447C96.8948 41.4791 97.3399 42.3405 97.2744 43.1835V43.5158C97.3155 43.685 97.4512 43.8115 97.567 43.9411C98.0686 44.5006 98.5625 46.0006 97.8735 46.6165C97.59 46.8696 96.9726 46.8833 96.6219 46.9687C95.9908 47.118 95.3643 47.2827 94.7484 47.4824Z" fill="#F8A37A"/>
<path d="M40.8525 216.696L35.8629 213.797L34.4087 137.217L39.3997 140.116L40.8525 216.696Z" fill="#B87847"/>
<path d="M39.3997 140.116L34.4087 137.217L44.0127 131.671L49.0036 134.572L39.3997 140.116Z" fill="#E29B65"/>
<path d="M49.0039 134.572L47.798 212.689L40.8527 216.696L39.3999 140.116L49.0039 134.572Z" fill="#814F2C"/>
<path d="M80.3949 215.968L82.4499 214.774L82.4286 222.527L80.3721 223.721L80.3949 215.968Z" fill="#5E3A23"/>
<path d="M43.1328 194.457L45.1892 193.261L82.4496 214.774L80.3946 215.968L43.1328 194.457Z" fill="#E29B65"/>
<path d="M80.3945 215.968L80.3717 223.721L43.1113 202.208L43.1327 194.457L80.3945 215.968Z" fill="#B87847"/>
<path d="M83.0263 241.039L78.0353 238.138L76.5825 161.556L81.572 164.459L83.0263 241.039Z" fill="#B87847"/>
<path d="M81.572 164.459L76.5825 161.556L86.1865 156.013L91.176 158.913L81.572 164.459Z" fill="#E29B65"/>
<path d="M91.1753 158.913L89.971 237.03L83.0256 241.039L81.5713 164.459L91.1753 158.913Z" fill="#814F2C"/>
<path d="M145.676 156.135L140.685 153.236L139.229 76.6539L144.222 79.5549L145.676 156.135Z" fill="#B87847"/>
<path d="M144.222 79.5552L139.229 76.6542L148.833 71.1082L153.826 74.0093L144.222 79.5552Z" fill="#E29B65"/>
<path d="M153.825 74.009L152.619 152.126L145.675 156.135L144.221 79.5549L153.825 74.009Z" fill="#814F2C"/>
<path d="M185.215 155.405L187.272 154.212L187.249 161.965L185.195 163.158L185.215 155.405Z" fill="#5E3A23"/>
<path d="M147.955 133.894L150.012 132.699L187.272 154.212L185.215 155.405L147.955 133.894Z" fill="#E29B65"/>
<path d="M185.215 155.405L185.196 163.158L147.934 141.647L147.955 133.894L185.215 155.405Z" fill="#B87847"/>
<path d="M187.848 180.477L182.858 177.575L181.402 100.995L186.393 103.896L187.848 180.477Z" fill="#B87847"/>
<path d="M186.393 103.896L181.402 100.995L191.006 95.4502L195.999 98.3512L186.393 103.896Z" fill="#E29B65"/>
<path d="M195.999 98.3513L194.793 176.467L187.848 180.477L186.394 103.896L195.999 98.3513Z" fill="#814F2C"/>
<path d="M29.3643 129.884L29.4009 142.702L87.2823 176.258L87.2473 163.44L29.3643 129.884Z" fill="#B87847"/>
<path d="M87.2471 163.44L87.2821 176.258L204.53 108.565L204.495 95.7476L87.2471 163.44Z" fill="#814F2C"/>
<path d="M29.3643 129.884L87.2473 163.44L204.495 95.7475L146.612 62.1916L29.3643 129.884Z" fill="#E29B65"/>
<path d="M35.6372 129.893L146.606 65.8258L198.222 95.7384L87.2517 159.806L35.6372 129.893Z" fill="#B87847"/>
<path d="M96.7623 154.31L95.6311 154.966L43.9038 125.123L45.035 124.468L96.7623 154.31Z" fill="#814F2C"/>
<path d="M107.184 148.298L106.057 148.948L54.3301 119.102L55.4506 118.451L107.184 148.298Z" fill="#814F2C"/>
<path d="M117.603 142.281L116.477 142.932L64.7495 113.085L65.8761 112.434L117.603 142.281Z" fill="#814F2C"/>
<path d="M128.029 136.259L126.903 136.913L75.1694 107.066L76.302 106.417L128.029 136.259Z" fill="#814F2C"/>
<path d="M138.448 130.247L137.325 130.897H137.322L85.5942 101.05L86.7207 100.4L138.448 130.247Z" fill="#814F2C"/>
<path d="M148.868 124.23L147.74 124.881L96.0083 95.0388L97.1349 94.3879H97.141L148.868 124.23Z" fill="#814F2C"/>
<path d="M159.293 118.213L158.165 118.864L106.433 89.0204L107.56 88.3664L159.293 118.213Z" fill="#814F2C"/>
<path d="M169.714 112.198L168.586 112.846L116.854 82.9987L117.981 82.3493L169.714 112.198Z" fill="#814F2C"/>
<path d="M180.136 106.179L179.009 106.829L127.279 76.9878L128.405 76.3323L180.136 106.179Z" fill="#814F2C"/>
<path d="M190.557 100.162L189.43 100.818H189.424L137.694 70.9709L138.825 70.3154L190.557 100.162Z" fill="#814F2C"/>
<path d="M29.0124 71.9236C29.1435 69.5683 29.2884 67.2146 29.4484 64.8609C29.6496 61.8882 29.8722 58.914 30.2243 55.9551C30.4378 54.1593 30.4103 52.5708 31.0292 50.8436C31.6314 49.1622 32.5125 47.5691 33.7061 46.2353C34.8586 44.9486 36.3129 43.9181 37.9334 43.3129C39.6667 42.665 40.9991 42.6818 42.6043 43.6269C46.2401 45.7673 46.795 49.8375 45.9657 53.6456C45.4946 55.8057 44.7126 57.8866 44.176 60.0299C43.3482 63.3334 43.1134 66.7527 42.8787 70.1507C42.6287 73.8017 42.3772 77.4543 42.1272 81.1053C41.9702 83.4102 42.3284 84.9667 44.5373 85.7853C47.231 86.7838 50.0131 87.5491 52.812 88.1863C58.5088 89.4821 64.3185 90.1971 70.1129 90.8998L70.1875 90.9273C71.6281 91.1056 73.0535 91.3251 74.5124 91.3663L74.6877 91.3693C76.7411 91.4059 78.7899 91.162 80.8433 91.0492C81.6086 91.0065 82.3739 90.9821 83.1407 90.9699C83.4258 90.9654 83.7185 90.9623 83.9914 91.0507C84.2688 91.1422 84.5051 91.3206 84.7322 91.5004C87.1165 93.3725 89.5098 95.3512 91.7294 97.4214C92.7843 98.4077 93.8545 99.7157 93.5603 101.129C93.5161 101.341 93.4398 101.553 93.4535 101.771C93.484 102.321 94.0481 102.915 93.6883 103.333C93.4474 103.617 92.9992 103.515 92.6318 103.568C92.1532 103.638 91.7721 104.002 91.3224 104.182C90.4504 104.531 89.4564 104.155 88.6653 103.652C86.5249 102.298 85.0341 100.045 82.7916 98.8681C82.5187 99.1592 82.8191 99.6166 83.1057 99.891C84.5005 101.226 85.8939 102.562 87.2887 103.897C87.5631 104.161 87.8588 104.476 87.8329 104.856C87.8024 105.289 87.3329 105.585 86.8969 105.579C86.4624 105.573 86.0631 105.348 85.6911 105.126C84.3115 104.301 82.9822 103.396 81.7078 102.417C80.7443 101.675 79.7747 100.871 78.5964 100.566C77.6832 100.33 76.7259 100.417 75.7822 100.438C74.2014 100.473 72.5459 100.298 71.2181 99.4413C70.4482 98.9443 69.8263 98.2431 69.0488 97.7629L68.9146 97.6897C63.3672 97.9199 57.8228 98.3513 52.2692 98.3101C49.0298 98.2888 45.7874 98.0997 42.5815 97.618C39.8847 97.2125 36.874 96.9686 34.5614 95.3802C31.761 93.4594 30.517 90.0721 29.7319 86.9027C28.5246 82.0322 28.7334 76.9344 29.0124 71.9236Z" fill="#F8A37A"/>
<path d="M140.511 150.331C143.165 151.198 144.587 153.47 145.566 155.931C145.91 156.803 146.296 157.673 146.512 158.59C146.729 159.513 146.813 160.462 146.839 161.408C146.889 163.318 146.714 165.232 146.907 167.137C147.369 171.7 146.509 177.028 145.646 181.517C145.107 184.328 144.349 187.1 143.277 189.757C142.498 191.688 141.558 193.549 140.732 195.463C138.631 200.322 137.277 205.506 136.733 210.772C136.591 212.138 136.477 213.59 135.663 214.698C134.506 216.273 132.193 216.646 130.343 216.015C128.905 215.526 127.702 214.545 126.669 213.454C125.829 212.565 125.193 211.088 124.156 210.478C121.28 208.796 117.371 208.826 114.158 208.963C113.461 208.994 112.746 209.03 112.083 208.815C111.42 208.602 110.808 208.071 110.715 207.381C110.587 206.422 111.446 205.637 112.264 205.12C115.569 203.036 119.469 202.294 123.131 201.084C124.813 200.53 126.974 199.907 128.303 198.685C129.661 197.441 130.152 195.707 130.428 193.948C131.39 187.828 131.242 181.853 131.097 175.696C131 171.504 131.016 167.308 131.404 163.131C131.506 162.007 131.676 160.854 131.87 159.727C131.978 159.102 132.135 158.487 132.329 157.882C132.495 157.364 132.559 156.847 132.724 156.326C133.103 155.122 133.541 153.92 134.225 152.851C134.951 151.719 135.981 150.742 137.25 150.3C137.753 150.123 138.285 150.036 138.818 150.04C139.393 150.045 139.965 150.155 140.511 150.331Z" fill="#F79263"/>
<path d="M126.785 203.908C125.413 207.98 124.004 212.265 124.768 216.496C125.021 217.899 125.501 219.406 124.894 220.695C124.131 222.323 121.952 222.788 120.208 222.357C118.463 221.927 116.957 220.849 115.306 220.139C113.316 219.284 111.145 218.973 109.022 218.543C106.898 218.113 104.741 217.529 103.011 216.23C101.279 214.928 100.047 212.762 100.412 210.628C100.482 210.212 100.616 209.795 100.89 209.477C101.362 208.931 102.131 208.774 102.843 208.669C105.599 208.254 108.389 208.077 111.174 208.137C112.226 208.161 113.348 208.198 114.242 207.643C115.482 206.871 115.841 205.239 115.903 203.779C116.051 200.321 115.624 196.835 115.682 193.365C115.742 189.792 115.836 186.218 116.048 182.65C116.476 175.482 117.388 168.3 119.466 161.407C119.813 160.247 120.226 159.047 121.1 158.209C122.745 156.628 125.593 156.922 127.352 158.375C129.637 160.259 130.49 163.822 131.146 166.582C131.925 169.865 131.727 173.271 131.986 176.61C132.452 182.584 131.37 188.557 129.797 194.301C128.91 197.537 127.856 200.728 126.785 203.908Z" fill="#F8A37A"/>
<path d="M168.823 224.299L164.564 221.825L163.323 173.046L167.58 175.52L168.823 224.299Z" fill="#B87847"/>
<path d="M167.58 175.52L163.323 173.046L171.517 168.314L175.776 170.788L167.58 175.52Z" fill="#E29B65"/>
<path d="M175.776 170.788L174.747 220.878L168.823 224.299L167.58 175.52L175.776 170.788Z" fill="#814F2C"/>
<path d="M202.559 228.118L204.313 227.098L204.295 233.714L202.542 234.732L202.559 228.118Z" fill="#5E3A23"/>
<path d="M170.767 209.762L172.52 208.742L204.313 227.098L202.559 228.118L170.767 209.762Z" fill="#E29B65"/>
<path d="M202.559 228.118L202.542 234.732L170.749 216.377L170.767 209.762L202.559 228.118Z" fill="#B87847"/>
<path d="M204.806 245.068L200.547 242.594L199.308 193.815L203.565 196.289L204.806 245.068Z" fill="#B87847"/>
<path d="M203.565 196.289L199.308 193.815L207.501 189.083L211.761 191.557L203.565 196.289Z" fill="#E29B65"/>
<path d="M211.76 191.557L210.731 241.647L204.805 245.068L203.564 196.289L211.76 191.557Z" fill="#814F2C"/>
<path d="M135.827 243.402L131.567 240.928L130.328 192.149L134.586 194.623L135.827 243.402Z" fill="#B87847"/>
<path d="M134.586 194.623L130.328 192.149L138.522 187.416L142.781 189.891L134.586 194.623Z" fill="#E29B65"/>
<path d="M142.78 189.891L141.751 239.982L135.826 243.402L134.585 194.623L142.78 189.891Z" fill="#814F2C"/>
<path d="M169.565 247.22L171.317 246.201L171.3 252.816L169.545 253.836L169.565 247.22Z" fill="#5E3A23"/>
<path d="M137.772 228.864L139.527 227.846L171.317 246.201L169.566 247.22L137.772 228.864Z" fill="#E29B65"/>
<path d="M169.565 247.22L169.546 253.836L137.753 235.481L137.772 228.864L169.565 247.22Z" fill="#B87847"/>
<path d="M171.811 264.171L167.551 261.696L166.311 212.917L170.57 215.391L171.811 264.171Z" fill="#B87847"/>
<path d="M170.57 215.391L166.311 212.917L174.504 208.186L178.764 210.66L170.57 215.391Z" fill="#E29B65"/>
<path d="M178.764 210.66L177.735 260.751L171.811 264.171L170.57 215.391L178.764 210.66Z" fill="#814F2C"/>
<path d="M127.336 184.448L127.373 197.266L169.38 221.679L169.342 208.861L127.336 184.448Z" fill="#B87847"/>
<path d="M169.341 208.861L169.379 221.679L214.47 195.672L214.432 182.854L169.341 208.861Z" fill="#814F2C"/>
<path d="M127.336 184.449L169.342 208.861L214.433 182.854L172.427 158.443L127.336 184.449Z" fill="#E29B65"/>
<path d="M133.61 184.458L172.422 162.077L208.16 182.847L169.347 205.227L133.61 184.458Z" fill="#B87847"/>
<path d="M179.048 199.652L177.914 200.305L142.064 179.608L143.197 178.954L179.048 199.652Z" fill="#814F2C"/>
<path d="M189.469 193.639L188.34 194.291L152.49 173.587L153.612 172.936L189.469 193.639Z" fill="#814F2C"/>
<path d="M199.886 187.622L198.76 188.273L162.91 167.57L164.036 166.919L199.886 187.622Z" fill="#814F2C"/>
<path d="M143.407 167.001C140.857 165.143 138.331 163.157 136.338 160.689C134.809 158.796 133.533 155.66 134.394 153.262C135.006 151.558 136.485 150.237 138.187 149.62C139.233 149.242 140.36 149.111 141.474 149.115C145.997 149.132 150.198 151.3 154.195 153.412C155.874 154.302 157.557 155.19 159.148 156.227C161.344 157.659 163.35 159.361 165.347 161.059C168.47 163.712 170.576 166.536 169.806 170.867C169.29 173.763 166.298 178.07 162.959 177.883C160.737 177.761 158.67 176.473 156.767 175.441C154.602 174.265 152.474 173.025 150.387 171.719C148.005 170.229 145.677 168.656 143.407 167.001Z" fill="#F8A37A"/>
<path d="M134.476 155.49C131.462 155.4 128.417 155.317 125.457 155.894C124.233 156.134 123.001 156.5 121.998 157.24C120.32 158.483 119.524 160.579 119.024 162.605C118.626 164.209 118.371 165.956 119.036 167.467C119.522 168.57 120.446 169.419 121.425 170.124C122.94 171.212 124.632 172.03 126.318 172.835C130.398 174.785 134.514 176.709 138.839 178.034C143.163 179.358 147.732 180.073 152.225 179.552C150.427 175.959 147.845 172.826 145.581 169.504C144.917 168.529 144.267 167.508 144.013 166.354C143.784 165.317 143.889 164.238 144.041 163.187C144.295 161.428 144.674 159.684 145.173 157.978C145.269 157.649 145.368 157.281 145.208 156.978C145.119 156.807 144.962 156.685 144.81 156.57C143.342 155.448 142.099 155.713 140.38 155.663C138.412 155.605 136.444 155.548 134.476 155.49Z" fill="#F8A37A"/>
<path d="M185.205 123.158C184.961 126.073 184.833 129.005 185.444 131.839C186.276 135.712 188.234 139.238 189.594 142.959C191.027 146.884 191.571 151.02 192.078 155.137C192.624 159.551 192.353 164.067 191.267 168.381C190.472 171.543 188.719 173.625 186.1 175.503C173.369 184.626 155.91 186.711 141.386 180.848C138.891 179.84 136.479 178.499 135.231 176.056C133.828 173.311 132.77 170.389 132.095 167.381C131.612 165.227 131.325 162.992 131.673 160.814C132.02 158.648 133.032 156.432 134.949 155.271C136.755 154.178 139.186 153.213 140.482 151.466C142.054 149.348 142.577 146.372 142.944 143.833C143.333 141.156 143.713 138.434 143.307 135.759C142.975 133.554 142.119 131.461 141.677 129.276C140.606 123.976 142.016 118.523 143.437 113.305C149.431 116.276 156.586 116.061 163.036 114.285C167.732 112.989 172.163 110.928 176.523 108.788C178.386 107.875 180.47 107.18 182.261 106.154C183.689 105.335 184.186 103.757 184.33 102.082C186.315 107.067 185.94 112.57 185.648 117.823C185.551 119.578 185.356 121.364 185.205 123.158Z" fill="#57633C"/>
<path d="M142.583 104.983C142.554 104.314 142.28 103.69 142.283 103.027C142.284 102.318 142.557 101.614 142.975 101.048C143.62 100.167 144.569 99.5649 145.511 99.0085C151.748 95.3254 158.593 92.8116 165.393 90.3176C167.645 89.4914 169.901 88.6652 172.218 88.0554C174.282 87.5112 176.401 87.2307 178.407 88.1164C180.194 88.903 181.296 90.7338 182.083 92.4473C184.546 97.8088 185.458 103.367 185.818 109.204C185.952 111.363 183.938 113.732 182.572 115.297C180.903 117.213 178.898 118.831 176.703 120.105C176.526 120.206 176.349 120.307 176.173 120.402C171.784 122.806 166.759 123.89 161.761 124.094C156.553 124.308 151.076 123.498 146.864 120.43C146.261 119.991 145.681 119.5 145.275 118.873C144.406 117.529 144.231 115.594 143.894 114.055C143.232 111.038 142.714 108.068 142.583 104.983Z" fill="#FDDCBC"/>
<path d="M153.055 78.552C154.014 77.9667 155.198 77.9301 156.322 77.9102C159.191 77.863 162.109 77.8112 164.841 76.9346C165.923 76.5855 170.583 73.9604 171.429 75.0382C171.603 75.2577 171.658 75.5474 171.707 75.8233C172.326 79.2624 172.861 82.7183 173.313 86.1834C173.425 87.0371 173.53 87.8892 173.632 88.7444C173.72 89.5051 174.039 90.56 173.919 91.3131C173.804 92.0372 173.106 92.1577 172.409 92.4534C171.644 92.7796 170.861 93.0647 170.074 93.3315C165.604 94.8392 160.712 95.7462 156.191 94.4016C155.996 92.1653 155.641 89.9442 155.13 87.7581C154.918 86.8557 154.673 85.941 154.168 85.162C153.593 84.2794 152.706 83.6071 152.268 82.6482L152.111 81.4256C151.503 80.4805 152.096 79.1389 153.055 78.552Z" fill="#F8A37A"/>
<path d="M152.745 59.4735C151.705 60.3714 150.602 61.3775 150.366 62.7282C150.154 63.9371 150.609 65.4204 149.704 66.2451C149.344 66.5713 148.853 66.6948 148.419 66.9067C147.984 67.1171 147.556 67.4997 147.571 67.9845C147.579 68.2025 147.675 68.4067 147.769 68.6049C148.138 69.3931 148.466 70.2239 148.495 71.0958C148.516 71.8169 148.332 72.5273 148.196 73.2377C147.785 75.4085 147.835 77.6388 147.885 79.8477C147.891 80.1038 147.902 80.3736 148.036 80.5916C148.141 80.7654 148.315 80.8873 148.484 81.0017C149.919 81.9864 151.367 82.9789 152.975 83.6466C153.68 83.9377 154.428 84.1694 155.192 84.1435C156.216 84.1085 157.163 83.6176 158.068 83.1359C158.776 82.7624 159.532 82.3356 159.854 81.6023C161.765 81.8843 163.689 82.1648 165.621 82.1038C167.395 82.0489 169.211 81.6114 170.877 81.0322C172.354 80.5199 173.753 79.029 174.752 77.875C177.013 75.2621 178.432 71.9053 178.61 68.4464C178.67 67.3213 178.603 66.1841 178.322 65.0926C177.955 63.6581 177.222 62.344 176.318 61.1809C175.499 60.1275 174.661 58.8576 173.664 57.9872C171.43 56.0329 168.596 54.7737 165.65 54.423C163.288 54.1456 160.863 54.449 158.64 55.2905C157.588 55.6868 156.696 56.0512 155.84 56.7737C154.794 57.6579 153.78 58.5787 152.745 59.4735Z" fill="#FDDCBC"/>
<path d="M153.025 61.6686C152.43 64.0498 152.247 66.5331 152.482 68.9753C152.712 71.3671 153.105 73.919 156.057 73.9633C157.293 73.98 158.988 74.5029 159.022 76.0258C159.058 77.7743 158.697 79.125 157.798 80.6144C156.534 82.7074 154.404 85.2045 156.388 87.5674C157.194 88.5262 158.377 89.0842 159.566 89.476C162.943 90.5873 166.653 90.5568 170.074 89.5903C173.495 88.6253 176.629 86.7472 179.243 84.3416C180.622 83.0748 181.913 81.5809 182.544 79.7897C183.091 78.2332 182.754 76.2087 182.623 74.5776C182.309 70.6506 181.192 66.774 179.224 63.3531C175.894 57.5709 169.83 52.4991 162.842 52.9976C161.417 53.0982 159.955 53.4519 158.688 54.1242C155.942 55.577 154.25 57.5816 153.326 60.5878C153.215 60.9445 153.116 61.3058 153.025 61.6686Z" fill="#67271C"/>
<path d="M121.646 63.0025C121.646 63.0025 122.134 61.6884 122.59 61.2738C123.047 60.8591 122.995 60.5908 126.296 59.9277C129.594 59.2661 126.983 61.2555 126.983 61.2555L126.384 61.7997L126.288 61.3622L121.818 62.943L121.646 63.0025Z" fill="#DBD9D8"/>
<path d="M122.777 62.6534C122.777 62.6534 122.785 64.0422 125.259 64.6352C127.733 65.2298 127.893 65.2419 127.893 65.2419L126.989 66.8716L126.237 66.5438L124.583 66.0636L123.157 65.4279L122.079 64.4066L121.813 63.402L122.153 62.4751L122.777 62.6534Z" fill="#DBD9D8"/>
<path d="M126.288 61.3624L126.214 61.3639C125.603 61.3746 124.99 61.4386 124.388 61.5499C123.521 61.7115 122.524 61.9798 121.888 62.6338C121.525 63.0072 121.487 63.5164 121.572 64.0073C121.821 65.4128 124.821 66.4266 124.821 66.4266L127.188 67.1248L126.938 66.4113C126.938 66.4113 125.042 66.236 123.155 65.0622C122.844 64.8701 122.58 64.6064 122.417 64.2802C122.28 64.0058 122.19 63.6567 122.307 63.2908C122.412 62.9615 122.681 62.71 123.005 62.5895C123.697 62.3304 125.316 61.7892 126.164 62.0453L126.384 61.7999L126.288 61.3624Z" fill="#DBD9D8"/>
<path d="M127.53 62.9111C124.663 61.1854 124.76 58.4369 127.748 56.7691C130.736 55.1029 135.482 55.1532 138.349 56.8789C141.215 58.6015 141.118 61.3516 138.13 63.0178C135.142 64.684 130.396 64.6352 127.53 62.9111Z" fill="#DBD9D8"/>
<path d="M128.159 62.5591C125.626 61.0346 125.711 58.6062 128.353 57.1336C130.992 55.6625 135.186 55.7037 137.719 57.2281C140.251 58.7526 140.166 61.1825 137.524 62.6551C134.885 64.1262 130.691 64.0835 128.159 62.5591Z" fill="#DBD9D8"/>
<path d="M139.384 60.7692C139.101 61.4643 138.479 62.1214 137.525 62.6549C134.886 64.126 130.692 64.0833 128.158 62.5604C127.312 62.0497 126.757 61.44 126.494 60.7967C126.777 60.103 127.399 59.4445 128.353 58.9109C130.992 57.4398 135.186 57.481 137.718 59.0069C138.566 59.5146 139.121 60.1274 139.384 60.7692Z" fill="#67B730"/>
<path d="M138.422 62.0375C138.166 62.257 137.867 62.4644 137.524 62.6549C134.885 64.126 130.692 64.0833 128.158 62.5604C127.896 62.4019 127.662 62.2342 127.455 62.0589C127.734 61.5421 128.237 61.0588 128.958 60.6564C131.249 59.3774 134.89 59.4155 137.088 60.7387C137.721 61.1198 138.164 61.5665 138.422 62.0375Z" fill="#539432"/>
<path d="M140.438 59.9539L140.435 59.8243C140.461 60.9844 139.688 62.1491 138.13 63.018C135.142 64.6842 130.397 64.6354 127.531 62.9113C126.118 62.0606 125.426 60.963 125.444 59.8685C125.416 61.5621 125.593 63.0165 125.63 63.2909C125.768 64.3519 125.994 65.0089 126.174 65.4601C126.253 65.6583 126.424 66.0547 126.685 66.4846C126.965 66.951 127.224 67.2544 127.336 67.384C127.499 67.5761 127.669 67.7422 127.762 67.8322L128.118 68.1462L128.474 68.4176C128.689 68.5685 128.727 68.5959 128.988 68.756C129.128 68.8398 129.455 69.0334 129.871 69.2103C130.209 69.3566 130.508 69.4618 130.863 69.5609C131.801 69.8231 132.603 69.8368 132.866 69.8399C133.096 69.8429 133.189 69.8383 133.574 69.8155L133.958 69.7758C134.095 69.7606 134.496 69.6966 134.74 69.6356C135.092 69.5456 135.092 69.5456 135.324 69.4725C135.479 69.4252 135.679 69.349 135.83 69.2911C135.833 69.2895 136.02 69.2179 136.276 69.0944L136.693 68.881C137.025 68.6965 137.315 68.4938 137.423 68.416C137.694 68.224 137.924 68.0197 138.002 67.9511C138.182 67.7925 138.386 67.5791 138.473 67.4816C138.664 67.2666 138.78 67.1233 138.946 66.8916C139.138 66.6218 139.42 66.1751 139.677 65.5653C139.874 65.1004 140.024 64.6126 140.133 64.0744C140.219 63.6628 140.315 63.079 140.392 61.8747C140.412 61.553 140.427 61.2085 140.435 60.8548C140.437 60.7633 140.441 60.553 140.441 60.3411C140.441 60.1749 140.438 59.9828 140.438 59.9539Z" fill="#DBD9D8"/>
<path d="M140.438 59.9539L140.435 59.8243C140.461 60.9844 139.688 62.1491 138.13 63.018C135.142 64.6842 130.397 64.6354 127.531 62.9113C126.118 62.0606 125.426 60.963 125.444 59.8685C125.416 61.5621 125.593 63.0165 125.63 63.2909C125.768 64.3519 125.994 65.0089 126.174 65.4601C126.253 65.6583 126.424 66.0547 126.685 66.4846C126.965 66.951 127.224 67.2544 127.336 67.384C127.499 67.5761 127.669 67.7422 127.762 67.8322L128.118 68.1462L128.474 68.4176C128.689 68.5685 128.727 68.5959 128.988 68.756C129.128 68.8398 129.455 69.0334 129.871 69.2103C130.209 69.3566 130.508 69.4618 130.863 69.5609C131.801 69.8231 132.603 69.8368 132.866 69.8399C133.096 69.8429 133.189 69.8383 133.574 69.8155L133.958 69.7758C134.095 69.7606 134.496 69.6966 134.74 69.6356C135.092 69.5456 135.092 69.5456 135.324 69.4725C135.479 69.4252 135.679 69.349 135.83 69.2911C135.833 69.2895 136.02 69.2179 136.276 69.0944L136.693 68.881C137.025 68.6965 137.315 68.4938 137.423 68.416C137.694 68.224 137.924 68.0197 138.002 67.9511C138.182 67.7925 138.386 67.5791 138.473 67.4816C138.664 67.2666 138.78 67.1233 138.946 66.8916C139.138 66.6218 139.42 66.1751 139.677 65.5653C139.874 65.1004 140.024 64.6126 140.133 64.0744C140.219 63.6628 140.315 63.079 140.392 61.8747C140.412 61.553 140.427 61.2085 140.435 60.8548C140.437 60.7633 140.441 60.553 140.441 60.3411C140.441 60.1749 140.438 59.9828 140.438 59.9539Z" fill="#DBD9D8"/>
<path d="M140.442 60.341C140.442 60.5529 140.437 60.7633 140.435 60.8547C140.428 61.2099 140.413 61.5529 140.391 61.8746C140.315 63.0789 140.219 63.6627 140.134 64.0743C140.024 64.6125 139.874 65.0987 139.678 65.5652C139.42 66.1735 139.138 66.6232 138.946 66.89C138.78 67.1232 138.664 67.2665 138.472 67.483C138.388 67.579 138.182 67.7924 138.002 67.9525C137.926 68.0181 137.695 68.2239 137.423 68.4159C137.315 68.4922 137.027 68.6964 136.693 68.8794L136.277 69.0958C136.019 69.2163 135.833 69.2894 135.832 69.291C135.679 69.3489 135.479 69.4251 135.326 69.4724C135.092 69.5471 135.092 69.5471 134.74 69.6355C134.496 69.6965 134.095 69.762 133.957 69.7757L133.574 69.8169C133.19 69.8382 133.097 69.8428 132.867 69.8382C132.627 69.8367 131.952 69.826 131.133 69.6309C133.56 68.3123 134.399 65.8701 134.678 64.1155C135.934 63.9402 137.132 63.5743 138.13 63.0179C139.663 62.1642 140.432 61.027 140.437 59.8897L140.438 59.9538C140.44 59.9827 140.442 60.1748 140.442 60.341Z" fill="#DBD9D8"/>
<path d="M123.547 63.9873C123.828 63.5787 124.05 63.1153 124.508 62.8912C124.771 62.7601 125.075 62.722 125.369 62.7449L125.683 62.8287C125.903 62.9629 125.95 63.2617 125.944 63.5208C125.907 64.78 125.192 65.8761 124.681 66.9859C124.453 67.4859 124.124 68.1353 124.171 68.6993C124.223 69.3106 124.218 69.8914 124.16 70.5119C123.974 72.5165 123.396 74.483 122.479 76.2758C122.05 77.1127 121.434 77.7972 121.023 78.6234C120.873 78.9207 120.739 79.2271 120.599 79.529C119.587 82.1205 118.762 84.7867 117.95 87.4515C117.367 89.3738 116.792 91.3007 116.308 93.2504C115.436 96.7658 114.884 100.345 115.091 103.973C115.109 104.272 115.108 104.559 115.103 104.841C115.282 104.824 115.46 104.801 115.638 104.784C118.982 104.46 122.357 104.28 125.627 103.525C129.645 102.598 133.415 100.825 137.36 99.6195C140.639 98.6149 144.199 98.0936 147.623 98.432C150.597 98.7278 152.426 102.283 153.21 104.801C154.605 109.283 154.503 114.218 152.925 118.638C152.749 119.132 152.55 119.632 152.205 120.027C151.306 121.067 149.667 121.116 148.385 120.62C147.104 120.126 146.04 119.204 144.862 118.5C141.944 116.756 138.627 117.873 135.497 118.25C131.758 118.701 127.991 118.884 124.227 118.94C117.645 119.041 110.771 118.674 105.027 115.458C103.579 114.647 102.396 113.74 102.309 112.076C102.255 111.766 102.213 111.454 102.165 111.15C101.786 108.766 101.826 106.246 102.478 103.911C103.1 101.674 103.586 99.5433 104.483 97.3649C107.361 90.3845 110.788 83.6358 113.53 76.602C113.555 76.0959 113.469 75.5791 113.469 75.0776C113.337 73.4906 113.03 71.9113 113.091 70.3213C113.14 69.0865 113.41 67.8731 113.733 66.6825C114.172 65.0544 114.756 63.379 115.986 62.225C116.387 61.85 116.846 61.5421 117.302 61.2372C117.651 61.0024 118 60.7661 118.349 60.5314C118.593 60.3682 118.84 60.2021 119.117 60.1045C119.471 59.9795 119.905 59.975 120.277 59.9933C120.683 60.0131 121.035 60.2585 121.44 60.2814C121.791 60.3012 122.125 60.1411 122.462 60.0481C123.143 59.8591 123.892 59.9338 124.518 60.2539C124.131 60.4613 123.744 60.6686 123.357 60.8744C123.119 61.0024 122.877 61.1335 122.695 61.3317C122.547 61.4948 122.45 61.6945 122.357 61.8942C122.027 62.5955 121.739 63.315 121.495 64.0513C121.204 64.9218 120.972 65.8318 121.037 66.7465C121.05 66.9493 121.123 67.1978 121.322 67.2282C121.482 67.2526 121.617 67.1154 121.706 66.9828C121.875 66.7328 121.988 66.4508 122.114 66.1779C122.437 65.4767 122.858 64.8196 123.36 64.2342L123.547 63.9873Z" fill="#F8A37A"/>
</svg>
