<svg width="290" height="253" viewBox="0 0 290 253" fill="none" xmlns="http://www.w3.org/2000/svg">
<path d="M144.698 201.334C64.782 201.334 -0.00244141 216.908 -0.00244141 236.118C-0.00244141 242.021 6.12343 247.58 16.9173 252.45H272.478C283.272 247.58 289.398 242.021 289.398 236.118C289.399 216.907 224.613 201.334 144.698 201.334Z" fill="#F0EEEE"/>
<path d="M213.292 236.691V117.295L215.579 116.477V89.7656L213.292 88.948V83.8336L215.579 83.0161V68.881L213.292 68.0635V65.2035L215.579 64.3859V50.2523L213.292 49.434V48.0319C192.878 36.5109 169.52 29.9683 144.698 29.9683C122.432 29.9683 101.343 35.2361 82.4999 44.6365V82.5328H63.8292C61.5002 76.8518 55.917 72.8364 49.4077 72.8364C46.7322 72.8364 44.2129 73.515 42.0106 74.7074C39.55 77.3004 37.1791 79.9868 34.9015 82.7599C34.2127 84.518 33.8213 86.423 33.8213 88.4221C33.8213 95.521 38.5971 101.515 45.1007 103.389V138.878C45.1007 145.958 50.8409 151.699 57.9218 151.699H82.4999V236.692C82.4999 242.963 85.8019 248.81 90.8216 252.451H204.665C209.964 248.892 213.292 243.169 213.292 236.691Z" fill="#DEDDF9"/>
<path d="M211.238 60.0442V45.9106L208.951 45.0924V39.6256C208.951 29.5016 200.714 21.2646 190.59 21.2646H96.5202C86.3962 21.2646 78.1592 29.5016 78.1592 39.6256V232.35C78.1592 241.821 85.6865 250.33 95.2953 251.721C95.4848 251.749 95.6759 251.762 95.8661 251.762H189.936C190.099 251.762 190.261 251.752 190.422 251.733C201.158 250.415 208.951 242.264 208.951 232.35V112.954L211.238 112.136V85.4246L208.951 84.6071V79.4927L211.238 78.6751V64.5401L208.951 63.7225V60.8625L211.238 60.0442Z" fill="#57633C"/>
<path d="M95.866 247.777C88.5926 246.725 82.144 240.275 82.144 232.35V39.6255C82.144 31.6981 88.5926 25.2488 96.52 25.2488H190.59C198.518 25.2488 204.966 31.6981 204.966 39.6255V232.349C204.966 240.275 198.518 246.724 189.937 247.777L95.866 247.777Z" fill="#8CBE19"/>
<path d="M190.59 30.8755H174.189C174.189 30.8755 168.764 38.5272 166.106 38.5272H123.444C120.787 38.5272 115.361 30.8755 115.361 30.8755H96.52C91.6878 30.8755 87.77 34.7932 87.77 39.6255V214.004C87.77 220.247 92.8309 225.308 99.074 225.308H188.037C194.28 225.308 199.341 220.247 199.341 214.004V39.6255C199.34 34.7932 195.423 30.8755 190.59 30.8755Z" fill="#FAFFEF"/>
<path d="M156.24 33.6856H126.102C125.33 33.6856 124.697 33.0532 124.697 32.2805C124.697 31.5078 125.33 30.8755 126.102 30.8755H156.24C157.012 30.8755 157.645 31.5078 157.645 32.2805C157.645 33.0532 157.012 33.6856 156.24 33.6856Z" fill="#57633C"/>
<path d="M164.853 32.2957C164.853 33.08 164.217 33.716 163.432 33.716C162.648 33.716 162.012 33.08 162.012 32.2957C162.012 31.5114 162.648 30.8755 163.432 30.8755C164.217 30.8755 164.853 31.5114 164.853 32.2957Z" fill="#57633C"/>
<path d="M144.699 243.912C148.55 243.912 151.671 240.791 151.671 236.94C151.671 233.089 148.55 229.968 144.699 229.968C140.848 229.968 137.727 233.089 137.727 236.94C137.727 240.791 140.848 243.912 144.699 243.912Z" fill="#57633C"/>
<path d="M207.561 0.549255C208.013 2.12432 208.238 3.69938 208.411 5.27371C208.57 6.84877 208.644 8.42383 208.645 9.99817C208.647 11.5732 208.573 13.1483 208.414 14.7226C208.242 16.2977 208.015 17.8728 207.561 19.4471C207.106 17.872 206.879 16.297 206.708 14.7226C206.548 13.1476 206.474 11.5725 206.476 9.99817C206.478 8.42311 206.551 6.84805 206.711 5.27371C206.883 3.69938 207.108 2.12432 207.561 0.549255Z" fill="#B76D2A"/>
<path d="M232.589 26.1069C231.013 26.5591 229.438 26.7841 227.864 26.957C226.289 27.1162 224.714 27.19 223.139 27.1914C221.564 27.1929 219.989 27.1191 218.414 26.9599C216.839 26.7877 215.264 26.5613 213.69 26.1062C215.265 25.6518 216.84 25.4246 218.414 25.2532C219.989 25.094 221.564 25.0195 223.139 25.0217C224.714 25.0231 226.289 25.0969 227.864 25.2561C229.438 25.4297 231.013 25.6547 232.589 26.1069Z" fill="#B76D2A"/>
<path d="M224.213 9.15234C223.418 10.5856 222.464 11.8582 221.474 13.0947C220.472 14.321 219.411 15.4866 218.298 16.6015C217.186 17.7164 216.02 18.7771 214.794 19.7784C213.559 20.7703 212.285 21.7239 210.849 22.5161C211.641 21.0807 212.594 19.8073 213.587 18.5716C214.588 17.3453 215.649 16.1797 216.764 15.067C217.878 13.9542 219.044 12.8928 220.271 11.8915C221.506 10.901 222.78 9.94675 224.213 9.15234Z" fill="#B76D2A"/>
<path d="M227.444 43.4774C226.011 42.6837 224.737 41.7287 223.502 40.7383C222.275 39.7369 221.11 38.6756 219.995 37.5628C218.88 36.4508 217.819 35.2845 216.817 34.0582C215.825 32.8232 214.872 31.5491 214.08 30.1136C215.515 30.9059 216.789 31.8587 218.024 32.8514C219.25 33.8527 220.416 34.9141 221.529 36.0283C222.641 37.1425 223.703 38.3087 224.703 39.5351C225.695 40.7715 226.65 42.0442 227.444 43.4774Z" fill="#B76D2A"/>
<path d="M203.251 19.285C201.818 18.4913 200.546 17.537 199.309 16.5458C198.083 15.5445 196.917 14.4831 195.802 13.3711C194.687 12.2584 193.626 11.0928 192.625 9.86646C191.633 8.63145 190.68 7.35736 189.888 5.92194C191.323 6.71417 192.596 7.66774 193.832 8.65966C195.059 9.66099 196.224 10.7216 197.337 11.8366C198.45 12.9507 199.511 14.117 200.512 15.3434C201.503 16.5784 202.457 17.8517 203.251 19.285Z" fill="#B76D2A"/>
<path d="M87.4263 134.294C87.4263 134.294 97.5046 171 143.142 166.617C143.142 166.617 120.297 162.764 120.297 134.294H87.4263Z" fill="#B76D2A"/>
<path d="M137.699 147.357H53.5809C46.5 147.357 40.7598 141.617 40.7598 134.536V91.0115C40.7598 83.9306 46.5 78.1903 53.5809 78.1903H137.7C144.781 78.1903 150.521 83.9306 150.521 91.0115V134.536C150.521 141.617 144.781 147.357 137.699 147.357Z" fill="#B76D2A"/>
<path d="M109.111 126.766L107.99 121.878C107.696 120.596 107.693 119.264 107.981 117.981L109.54 111.018C110.931 104.811 107.78 98.609 102.322 95.88C102.368 95.7505 102.421 95.6244 102.452 95.4869C102.85 93.7114 101.733 91.9498 99.958 91.5521C98.1826 91.1545 96.4209 92.2709 96.0233 94.0464C95.9922 94.1839 95.987 94.3209 95.9738 94.4579C89.8722 94.5971 84.3767 98.8617 82.9862 105.069L81.4266 112.032C81.1389 113.315 80.5674 114.518 79.7547 115.553L76.6551 119.495C75.3337 121.176 76.2182 123.661 78.305 124.128L105.642 130.253C107.729 130.72 109.59 128.85 109.111 126.766Z" fill="white"/>
<path d="M88.4664 128.275C87.5669 128.074 86.7589 128.854 86.9137 129.763C87.2256 131.598 88.6126 133.152 90.5411 133.584C92.4696 134.016 94.3867 133.202 95.4519 131.676C95.9797 130.92 95.582 129.87 94.6825 129.668L88.4664 128.275Z" fill="white"/>
<path d="M50.7435 97.7784C58.3082 94.6449 61.9004 85.9724 58.7669 78.4077C55.6335 70.8431 46.9609 67.2508 39.3963 70.3843C31.8316 73.5178 28.2394 82.1903 31.3728 89.755C34.5063 97.3196 43.1788 100.912 50.7435 97.7784Z" fill="white" stroke="#B76D2A" stroke-width="1.52196" stroke-miterlimit="10"/>
<path d="M46.6088 75.6501H44.9412C44.7212 75.6501 44.523 75.7825 44.439 75.9858C44.065 76.888 42.7388 77.5044 40.8924 77.6346C40.6074 77.6549 40.3867 77.8915 40.3867 78.1773V79.8449C40.3867 80.1452 40.6305 80.389 40.9308 80.389H43.6772V91.9679C43.6772 92.2682 43.921 92.512 44.2213 92.512H46.6095C46.9098 92.512 47.1536 92.2682 47.1536 91.9679V76.1949C47.1529 75.8932 46.9091 75.6501 46.6088 75.6501Z" fill="#221A14"/>
</svg>
