<svg width="28" height="20" viewBox="0 0 28 20" fill="none" xmlns="http://www.w3.org/2000/svg">
<path fill-rule="evenodd" clip-rule="evenodd" d="M11.87 4.98441C11.9204 5.10931 11.9884 5.21926 12.074 5.31424C12.1647 5.43891 12.2614 5.52484 12.3641 5.57203C12.4668 5.61921 12.5725 5.63746 12.6813 5.62677C12.7901 5.61608 12.8896 5.58046 12.9797 5.51991C13.0699 5.45935 13.1552 5.37342 13.2358 5.26211C13.6327 4.64412 14.0517 4.17386 14.4929 3.85135C14.9341 3.52885 15.4191 3.34161 15.9478 3.28965C16.3558 3.24957 16.8024 3.29356 17.2879 3.42162C17.7733 3.54968 18.4471 3.80915 19.3092 4.20004C20.264 4.60249 21.0234 4.8794 21.5874 5.03076C22.1514 5.18212 22.6782 5.23374 23.1679 5.18563C23.8672 5.11691 24.5115 4.8466 25.1008 4.37472C25.6901 3.90304 26.2302 3.21948 26.7213 2.32404C26.7804 2.21898 26.8248 2.10708 26.8546 1.98835C26.8846 1.86961 26.8921 1.73364 26.877 1.58045C26.8619 1.42705 26.8247 1.28079 26.7653 1.14168C26.7058 1.00236 26.6285 0.875338 26.5333 0.760621C26.4402 0.666383 26.342 0.598489 26.2387 0.556937C26.1355 0.515386 26.031 0.499807 25.9253 0.510199C25.8245 0.520101 25.7268 0.560308 25.6321 0.630818C25.5373 0.701342 25.4572 0.792336 25.3919 0.9038C25.0293 1.55978 24.6435 2.05779 24.2345 2.39781C23.8256 2.73783 23.3794 2.93159 22.8959 2.9791C22.5347 3.0146 22.1347 2.97636 21.696 2.86438C21.2571 2.75242 20.6066 2.501 19.7445 2.11011C18.6951 1.6756 17.8846 1.38304 17.313 1.23242C16.7414 1.0818 16.1979 1.03182 15.6824 1.08247C14.9718 1.15231 14.3141 1.40304 13.7094 1.83467C13.1048 2.26629 12.5234 2.90241 11.9654 3.74302C11.8916 3.85181 11.8368 3.97557 11.8012 4.11431C11.7656 4.25325 11.7556 4.40177 11.7711 4.55988C11.7866 4.7182 11.8196 4.85971 11.87 4.98441ZM8.15996 12.7856C8.07436 12.6906 8.00635 12.5807 7.95594 12.4558C7.90556 12.3311 7.87258 12.1896 7.85703 12.0312C7.84149 11.8731 7.85153 11.7246 7.88714 11.5857C7.92278 11.4469 7.97751 11.3232 8.05132 11.2144C8.60938 10.3738 9.19073 9.73765 9.79538 9.30602C10.4 8.87439 11.0577 8.62366 11.7684 8.55383C12.2839 8.50317 12.8274 8.55316 13.3989 8.70377C13.9705 8.85439 14.781 9.14696 15.8305 9.58147C16.6926 9.97235 17.3431 10.2238 17.7819 10.3357C18.2207 10.4477 18.6206 10.4859 18.9819 10.4505C19.4653 10.4029 19.9115 10.2092 20.3205 9.86916C20.7294 9.52914 21.1152 9.03114 21.4779 8.37515C21.5432 8.26369 21.6232 8.1727 21.718 8.10217C21.8127 8.03166 21.9104 7.99146 22.0112 7.98155C22.117 7.97116 22.2214 7.98674 22.3247 8.02829C22.4279 8.06984 22.5261 8.13774 22.6193 8.23197C22.7144 8.34669 22.7917 8.47371 22.8512 8.61303C22.9106 8.75215 22.9479 8.8984 22.9629 9.0518C22.978 9.205 22.9705 9.34096 22.9406 9.45971C22.9107 9.57844 22.8663 9.69033 22.8072 9.79539C22.3162 10.6908 21.776 11.3744 21.1867 11.8461C20.5975 12.318 19.9532 12.5883 19.2538 12.657C18.7642 12.7051 18.2374 12.6535 17.6733 12.5021C17.1093 12.3508 16.3499 12.0738 15.3952 11.6714C14.5331 11.2805 13.8593 11.021 13.3738 10.893C12.8884 10.7649 12.4417 10.7209 12.0338 10.761C11.505 10.813 11.02 11.0002 10.5788 11.3227C10.1377 11.6452 9.71864 12.1155 9.32175 12.7335C9.24117 12.8448 9.1558 12.9307 9.06565 12.9913C8.9755 13.0518 8.87604 13.0874 8.76726 13.0981C8.65849 13.1088 8.55274 13.0906 8.45002 13.0434C8.3473 12.9962 8.25062 12.9103 8.15996 12.7856ZM2.60053 11.2945C2.36318 10.7572 1.73523 10.5141 1.19797 10.7515C0.660707 10.9888 0.417582 11.6168 0.654933 12.154L3.52638 18.6538L3.80636 19.2875H4.49918H22.3931H23.0053L23.3128 18.758L27.0867 12.2583C27.3816 11.7503 27.2089 11.0995 26.701 10.8046C26.193 10.5096 25.5422 10.6823 25.2472 11.1903L21.7808 17.1605H5.19201L2.60053 11.2945ZM4.56107 7.2179C6.1811 7.2179 7.4944 5.9046 7.4944 4.28456C7.4944 2.66453 6.1811 1.35123 4.56107 1.35123C2.94103 1.35123 1.62773 2.66453 1.62773 4.28456C1.62773 5.9046 2.94103 7.2179 4.56107 7.2179Z" fill="#B76D2A"/>
</svg>
