<svg width="221" height="273" viewBox="0 0 221 273" fill="none" xmlns="http://www.w3.org/2000/svg">
<path d="M55.3076 272.008L1.64054 241.023C-0.200147 239.959 0.0314113 238.104 2.1542 236.878L158.308 146.722C160.432 145.496 163.647 145.362 165.486 146.426L219.156 177.411C220.995 178.473 220.765 180.329 218.641 181.555L62.4858 271.71C60.3613 272.936 57.1483 273.069 55.3076 272.008Z" fill="#F0EEEE"/>
<path d="M192.124 252.712C173.728 263.334 143.805 263.278 125.292 252.591C106.779 241.902 106.686 224.628 125.083 214.005C143.481 203.384 173.402 203.438 191.915 214.127C210.428 224.814 210.522 242.089 192.124 252.712Z" fill="#F0EEEE"/>
<path d="M17.3273 236.038L11.7686 232.807L10.1475 169.12L15.7096 172.35L17.3273 236.038Z" fill="#B87847"/>
<path d="M15.7096 172.35L10.1475 169.12L20.8467 162.941L26.407 166.172L15.7096 172.35Z" fill="#E29B65"/>
<path d="M26.407 166.172L25.0643 231.571L17.3273 236.038L15.7095 172.35L26.407 166.172Z" fill="#814F2C"/>
<path d="M61.3789 241.023L63.6688 239.693L63.6444 248.33L61.3545 249.661L61.3789 241.023Z" fill="#5E3A23"/>
<path d="M19.8677 217.058L22.1576 215.727L63.6679 239.693L61.378 241.023L19.8677 217.058Z" fill="#E29B65"/>
<path d="M61.3788 241.023L61.3544 249.661L19.8459 225.693L19.8686 217.058L61.3788 241.023Z" fill="#B87847"/>
<path d="M64.311 263.155L58.7489 259.925L57.1311 196.236L62.6897 199.468L64.311 263.155Z" fill="#B87847"/>
<path d="M62.6897 199.468L57.1311 196.236L67.8287 190.059L73.389 193.289L62.6897 199.468Z" fill="#E29B65"/>
<path d="M73.389 193.289L72.0464 258.688L64.311 263.155L62.6897 199.468L73.389 193.289Z" fill="#814F2C"/>
<path d="M149.525 159.666L143.966 156.435L142.345 92.748L147.907 95.9783L149.525 159.666Z" fill="#B87847"/>
<path d="M147.907 95.9783L142.345 92.748L153.046 86.5695L158.604 89.8016L147.907 95.9783Z" fill="#E29B65"/>
<path d="M158.604 89.8016L157.262 155.201L149.525 159.666L147.907 95.9783L158.604 89.8016Z" fill="#814F2C"/>
<path d="M193.575 164.651L195.865 163.321L195.841 171.958L193.553 173.289L193.575 164.651Z" fill="#5E3A23"/>
<path d="M152.065 140.686L154.355 139.355L195.865 163.321L193.575 164.651L152.065 140.686Z" fill="#E29B65"/>
<path d="M193.575 164.651L193.552 173.289L152.042 149.323L152.064 140.686L193.575 164.651Z" fill="#B87847"/>
<path d="M196.507 186.785L190.946 183.553L189.327 119.864L194.886 123.096L196.507 186.785Z" fill="#B87847"/>
<path d="M194.886 123.096L189.327 119.864L200.024 113.687L205.587 116.919L194.886 123.096Z" fill="#E29B65"/>
<path d="M205.588 116.919L204.244 182.318L196.508 186.785L194.887 123.096L205.588 116.919Z" fill="#814F2C"/>
<path d="M3.56226 160.608L3.60928 177.343L58.4554 209.216L58.4084 192.481L3.56226 160.608Z" fill="#B87847"/>
<path d="M58.408 192.481L58.455 209.216L211.54 120.834L211.491 104.099L58.408 192.481Z" fill="#814F2C"/>
<path d="M3.56226 160.608L58.4084 192.481L211.491 104.099L156.645 72.2255L3.56226 160.608Z" fill="#E29B65"/>
<path d="M11.7529 160.62L156.637 76.9707L203.299 104.086L58.4144 187.736L11.7529 160.62Z" fill="#B87847"/>
<path d="M70.8323 180.561L69.3538 181.418L22.5461 154.393L24.0247 153.538L70.8323 180.561Z" fill="#814F2C"/>
<path d="M84.4364 172.712L82.9666 173.56L36.1589 146.53L37.6235 145.682L84.4364 172.712Z" fill="#814F2C"/>
<path d="M98.0426 164.857L96.5711 165.705L49.7617 138.673L51.235 137.825L98.0426 164.857Z" fill="#814F2C"/>
<path d="M111.651 156.993L110.182 157.848L63.3669 130.817L64.8437 129.969L111.651 156.993Z" fill="#814F2C"/>
<path d="M125.258 149.144L123.793 149.992H123.786L76.9788 122.962L78.4503 122.114L125.258 149.144Z" fill="#814F2C"/>
<path d="M138.861 141.288L137.391 142.136L90.5762 115.113L92.0476 114.265H92.0529L138.861 141.288Z" fill="#814F2C"/>
<path d="M152.475 133.431L151.003 134.281L104.187 107.256L105.658 106.401L152.475 133.431Z" fill="#814F2C"/>
<path d="M166.076 125.576L164.607 126.424L117.792 99.3933L119.262 98.5453L166.076 125.576Z" fill="#814F2C"/>
<path d="M179.688 117.72L178.217 118.568L131.402 91.5447L132.874 90.6879L179.688 117.72Z" fill="#814F2C"/>
<path d="M193.293 109.864L191.822 110.719H191.816L145 83.6873L146.478 82.8324L193.293 109.864Z" fill="#814F2C"/>
<path d="M86.8865 45.9282C86.8865 49.3153 89.6309 52.0598 93.018 52.0598C96.4033 52.0598 99.1496 49.3153 99.1496 45.9282C99.1496 42.5411 96.4033 39.7967 93.018 39.7967C89.6309 39.7967 86.8865 42.5411 86.8865 45.9282Z" fill="#67271C"/>
<path d="M115.832 49.8117C118.78 50.4334 121.573 51.7794 123.896 53.6985C126.055 55.4852 127.363 58.8688 127.985 61.5541C128.953 65.7266 128.673 70.033 128.856 74.2873C129.218 82.6357 131.98 89.9741 134.555 97.7304C136.234 102.782 137.183 108.229 138.393 113.426C139.248 117.098 140.265 120.799 140.863 124.526C141.032 125.593 139.473 126.539 138.576 126.885C137.291 127.383 135.731 127.068 134.74 126.11C134.217 125.605 133.86 124.961 133.519 124.322C133.12 123.582 132.734 122.835 132.354 122.084C130.543 118.512 128.892 114.862 127.069 111.298C125.455 108.144 123.917 104.853 123.783 101.236C123.774 100.997 123.779 100.752 123.779 100.51C123.708 100.127 123.64 99.7435 123.59 99.3586C123.248 96.7569 123.321 94.1535 122.994 91.5274C122.663 88.8508 122.139 86.2022 121.549 83.5726C120.453 78.6792 119.119 73.8328 118.297 68.8819C117.892 66.4405 117.611 63.9711 117.563 61.4948C117.533 60.0373 117.085 58.6424 116.81 57.2232C116.553 55.884 116.519 54.3951 116.64 53.0385C116.744 51.8317 116.878 50.7033 115.832 49.8117Z" fill="#F8A37A"/>
<path d="M119.89 51.4034C121.8 52.1453 123.763 53.6481 124.438 55.6525C124.867 56.9272 124.928 58.2925 124.945 59.6386C124.989 62.8394 124.799 66.0662 124.078 69.1937C123.752 70.6113 123.397 72.3806 122.591 73.6066C121.868 74.7054 120.583 75.2835 119.453 75.8582C108.678 81.3419 97.5525 86.2719 85.8484 89.3055C85.2145 89.4709 84.5527 89.6294 83.9066 89.5127C83.217 89.3856 82.6267 88.9589 82.0625 88.5427C80.3228 87.2593 78.5378 85.9271 77.2492 84.1648C76.5143 83.1582 76.2966 82.507 76.3123 81.2723C76.3297 79.9906 76.4012 78.7124 76.5248 77.4359C76.8069 74.5713 77.3572 71.7328 78.1687 68.9709C78.8565 66.62 79.5461 63.6021 81.4425 61.9442C84.2305 59.5045 87.3007 57.3957 90.4997 55.5254C93.2982 53.8902 96.222 52.4239 99.3304 51.4992C104.231 50.0434 109.441 49.9754 114.535 50.3864C116.281 50.5257 118.04 50.7277 119.688 51.3267L119.89 51.4034Z" fill="#FDDCBC"/>
<path d="M113.276 57.0541C113.456 57.7716 113.56 58.7294 113.067 59.3458C112.761 59.729 112.317 59.9745 111.871 60.173C108.479 61.6898 104.489 61.0542 101.029 59.7011C99.5366 59.1177 98.0825 58.4003 96.8391 57.3937C95.8535 56.5979 94.5161 55.2953 94.2409 53.9979C94.1016 53.3414 94.4621 52.8729 94.725 52.2843C95.082 51.485 95.385 50.6544 95.6654 49.8255C96.759 46.5969 97.3615 43.2028 97.4434 39.7966C97.4695 41.5067 98.894 42.8511 100.322 43.7932C103.631 45.9717 107.577 47.168 111.535 47.1942C111.925 47.1976 112.333 47.1837 112.674 46.9974C113.426 46.5864 113.848 48.4602 113.917 48.9809C114.016 49.7106 113.818 50.2313 113.532 50.8843C112.695 52.8051 112.771 55.0445 113.276 57.0541Z" fill="#F8A37A"/>
<path d="M106.412 16.1097C109.841 16.249 113.32 18.4432 115.276 21.1738C116.74 23.2199 117.649 25.6022 118.487 27.9758C119.398 30.5496 119.979 33.2332 120.488 35.8975C120.993 38.541 120.739 41.2645 120.441 43.9394C120.275 45.4283 120.098 46.9172 119.866 48.3974C119.765 49.0505 119.647 49.7174 119.319 50.2886C118.745 51.2951 117.594 51.8629 116.448 52.0196C115.302 52.1764 114.139 51.9831 112.998 51.788C109.848 51.2499 106.699 50.7136 103.549 50.1772C102.095 49.9299 100.496 49.5955 99.6187 48.4114C98.9465 47.5058 98.7985 46.2137 97.8947 45.5415C97.388 45.1654 96.7349 45.0626 96.1254 44.8937C93.663 44.2145 91.6673 42.3112 90.4309 40.077C89.1945 37.8427 88.6425 35.295 88.3325 32.7612C87.8989 29.2139 87.9581 25.4072 89.7953 22.3423C91.3939 19.6744 94.1925 17.8807 97.1685 16.9769C100.143 16.0749 103.304 15.9826 106.412 16.1097Z" fill="#FDDCBC"/>
<path d="M118.406 145.618C119.31 144.087 120.708 142.894 122.232 141.978C123.923 140.961 125.812 140.247 127.773 140.022C130.549 139.702 133.379 140.4 135.817 141.727C136.24 141.959 136.628 142.319 137.071 142.504C137.621 142.736 138.239 142.755 138.798 143.007C139.949 143.524 140.921 144.395 141.793 145.29C144.756 148.338 147.134 151.981 148.646 155.944C150.13 158.518 150.304 162.205 150.379 164.885C150.488 168.913 150.043 172.935 150.192 176.965C150.617 188.474 150.572 199.993 150.946 211.504C151.157 217.998 151.5 224.49 152.137 230.956C152.474 234.353 152.907 237.814 154.368 240.899C154.873 241.965 155.497 242.982 155.869 244.1C156.575 246.225 156.308 248.583 155.504 250.671C155.335 251.109 155.129 251.557 154.753 251.839C154.281 252.196 153.64 252.213 153.05 252.168C146.861 251.696 142.093 245.598 141.752 239.4C141.632 237.204 141.929 234.862 140.884 232.929C139.368 230.117 135.498 229.101 134.251 226.16C133.485 224.352 133.933 222.254 134.704 220.45C135.474 218.642 136.557 216.965 137.113 215.083C138.272 211.156 137.005 206.98 135.935 203.029C134.337 197.127 133.175 191.114 132.015 185.111C131.453 182.201 130.889 179.272 130.85 176.308C130.807 173.216 131.343 170.151 131.963 167.117C131.474 166.619 130.995 166.112 130.521 165.6C127.091 161.881 123.657 158.161 120.224 154.44C119.204 153.332 118.154 152.178 117.689 150.744C117.142 149.053 117.504 147.15 118.406 145.618Z" fill="#F8A37A"/>
<path d="M105.508 24.0645C103.153 25.5099 101.062 27.7999 100.884 30.5548C100.785 32.0855 101.283 33.5884 101.436 35.1156C101.59 36.6428 101.281 38.3947 100.015 39.2619C99.3363 38.0778 98.2792 37.1113 97.0359 36.5436C96.6162 36.3538 96.1616 36.204 95.7019 36.2388C94.9844 36.2928 94.3663 36.7908 93.9448 37.3759C93.1873 38.4347 92.9453 39.847 93.3127 41.0974C93.6784 42.3477 94.6449 43.4082 95.8534 43.8888C96.2644 44.0525 96.7834 44.2511 96.8147 44.6917C96.8391 45.0504 96.4752 45.3377 96.1164 45.3604C95.7594 45.383 95.4198 45.2141 95.1098 45.0365C93.5861 44.1623 92.2592 42.9503 91.2474 41.5136C89.2378 38.6577 88.5621 35.0808 88.2608 31.6015C88.1215 30.0028 88.0519 28.3885 88.2591 26.7951C88.7815 22.7968 91.1412 19.0753 94.5352 16.8968C95.998 15.9599 97.6245 15.3034 99.2893 14.8106C99.7873 14.6643 100.291 14.5372 100.797 14.4257C106.767 13.1266 116.237 15.9112 116.59 23.2025C116.562 22.593 115.152 21.5116 114.718 21.1425C114.151 20.6583 113.64 20.1777 112.851 20.432C112.115 20.6688 111.5 21.2103 110.798 21.5255C109.015 22.3266 107.181 23.0406 105.508 24.0645Z" fill="#67271C"/>
<path d="M88.0296 14.4205C86.424 17.8894 86.1697 21.8093 86.504 25.5691C86.6764 27.4968 86.6538 28.8969 85.9172 30.748C85.2798 32.3501 84.4022 33.8408 83.582 35.3506C82.9934 36.4355 82.4256 37.7346 82.9463 38.8526C83.2998 39.6084 84.0818 40.0786 84.8776 40.3293C86.3212 40.7821 87.8745 40.655 89.3774 40.8152C91.5176 41.0416 93.2729 41.9036 95.0701 43.0129C95.9199 43.5388 98.8525 45.167 99.6727 44.5175C99.8973 44.3381 100.01 44.0577 100.096 43.7826C100.684 41.8566 100.289 39.7756 99.7754 37.8287C98.9256 34.6001 97.7623 31.4603 96.916 28.2299C96.0714 24.9996 95.5472 21.6265 96.0139 18.3213C96.2647 16.5276 96.8046 14.7897 97.4054 13.0848C97.7066 12.2333 98.0984 11.3852 98.3352 10.5128C98.4537 10.0739 98.4537 9.7761 98.687 9.39299C99.105 8.70513 99.3314 8.16704 100.045 7.70556C100.535 7.39211 101.522 6.8819 102.13 7.03688C99.9043 6.47092 97.5464 6.96198 95.3748 7.70556C92.033 8.84968 89.515 11.2093 88.0296 14.4205Z" fill="#57633C"/>
<path d="M89.9514 22.647C90.0437 23.9461 90.2754 25.2487 90.7769 26.452C91.4387 28.0315 92.5375 29.3776 93.4622 30.8195C95.8288 34.5061 97.0478 38.8301 97.6416 43.1715C97.6921 43.5406 97.7443 43.9272 97.9603 44.2337C98.4322 44.9006 99.4945 44.8589 100.158 44.38C100.82 43.9029 101.192 43.1331 101.584 42.4156C104.083 37.8305 108.391 34.264 113.365 32.6672C116.379 31.6989 119.573 31.4394 122.662 30.7411C123.639 30.5182 124.653 30.2292 125.377 29.5361C126.103 28.843 126.426 27.6292 125.835 26.8195C124.782 25.3776 123.171 24.8186 121.706 23.9288C119.28 22.4538 117.886 19.8329 116.219 17.6231C114.377 15.1781 112.414 12.8098 110.185 10.7044C105.962 6.72179 99.7104 4.89501 94.9354 9.11622C91.2784 12.3466 89.6171 17.8807 89.9514 22.647Z" fill="#57633C"/>
<path d="M102.432 138.819C102.749 137.553 103.078 136.263 103.778 135.162C104.849 133.482 106.664 132.438 108.459 131.576C109.657 131.004 110.878 130.483 112.12 130.014C112.806 129.757 114.648 129.546 114.662 128.621C114.667 128.332 114.636 127.996 114.854 127.806C115.009 127.674 115.232 127.669 115.434 127.671C118.826 127.698 122.22 127.742 125.612 127.801C131.947 127.911 138.358 128.087 144.465 129.774C147.639 130.652 151.171 132.2 153.005 135.087C155.579 138.681 157.12 143.474 158.492 147.366C159.373 149.867 160.199 152.387 161.12 154.873C162.765 159.324 164.745 163.645 166.731 167.957C169.035 172.96 171.359 177.971 174.214 182.685C180.887 193.71 190.449 202.966 201.684 209.277C202.433 209.698 203.243 210.162 203.586 210.951C204.013 211.929 203.548 213.115 202.754 213.829C201.96 214.543 200.908 214.886 199.884 215.186C195.501 216.464 190.611 217.241 186.501 215.25C183.182 213.643 180.845 210.442 177.519 208.847C175.708 207.98 173.693 207.635 171.796 206.968C169.902 206.303 168.012 205.199 167.15 203.382C165.877 200.697 167.25 197.477 166.659 194.565C166.273 192.65 165.066 191.018 163.882 189.465C157.738 181.426 151.173 173.592 146.676 164.529C144.265 159.673 142.511 154.405 141.844 149.005C141.423 149.012 140.999 149.024 140.58 149.046C137.583 149.217 134.617 149.722 131.658 150.225C127.841 150.877 124.026 151.526 120.209 152.176C113.568 153.308 106.662 154.429 100.177 152.597C100.158 147.93 101.299 143.345 102.432 138.819Z" fill="#FDDCBC"/>
<path d="M121.967 102.098C123.772 110.242 124.232 118.711 126.956 126.598C118.58 130.102 111.443 136.494 107.044 144.439C105.613 147.025 104.455 149.778 102.71 152.165C102.358 152.648 101.959 153.132 101.409 153.358C100.742 153.632 99.9846 153.478 99.2846 153.308C95.8992 152.479 92.601 151.303 89.4542 149.806C84.9666 147.667 80.6879 144.768 77.9138 140.642C75.8346 137.544 74.6957 133.889 74.1454 130.199C73.3392 124.782 73.764 119.186 75.3748 113.953C76.7801 109.391 79.0388 105.164 81.0136 100.837C81.9923 98.6897 82.9117 96.5095 83.6153 94.2526C83.9601 93.1416 84.4093 91.8999 84.5016 90.7332C84.573 89.8259 84.3658 89.0962 85.2713 88.4728C85.8059 88.1054 86.4573 87.9626 87.0911 87.8355C90.1926 87.2156 93.3655 86.7715 96.2702 85.5212C98.7012 84.4781 100.873 82.8986 103.316 81.8903C105.303 81.0718 107.65 80.6364 109.735 81.34C111.715 82.0052 113.387 84.1227 114.68 85.69C117.158 88.6975 118.923 92.2448 120.215 95.9052C120.929 97.9288 121.502 100.003 121.967 102.098Z" fill="#57633C"/>
<path d="M116.585 92.4155C117.205 94.3851 117.727 96.4034 118.276 98.3573C120.054 104.687 121.485 111.111 122.647 117.583C123.404 121.805 124.171 126.312 127.067 129.478C127.601 130.062 128.212 130.594 128.94 130.901C130.879 131.718 133.068 130.769 134.953 129.837C135.244 129.692 135.554 129.53 135.702 129.241C135.826 128.996 135.807 128.707 135.782 128.432C135.573 126.258 134.637 124.58 133.837 122.575C132.979 120.423 132.073 118.291 131.195 116.146C129.454 111.883 127.81 107.547 126.92 103.014C126.267 99.6964 126.025 96.3128 125.816 92.9379C125.536 88.4085 125.309 83.8616 125.649 79.3339C125.745 78.0575 125.898 76.8489 125.71 75.5742C125.511 74.249 125.128 72.9516 124.571 71.7326C124.399 71.3548 124.085 70.9194 123.681 71.0117C123.462 71.0604 123.31 71.2537 123.157 71.4174C122.504 72.1157 117.219 74.8289 115.441 75.7501C112.184 77.4375 108.482 78.2299 105.415 80.243C105.1 80.4502 104.771 80.6975 104.668 81.0597C104.385 82.0488 106.116 81.9739 106.69 82.0802C107.638 82.256 108.592 82.479 109.419 82.9927C111.643 84.3754 114.335 86.5051 115.347 88.9501C115.812 90.0733 116.216 91.2366 116.585 92.4155Z" fill="#57633C"/>
<path d="M142.359 125.016C143.207 125.49 144.073 125.969 145.018 126.187C145.792 126.363 146.612 126.364 147.336 126.681C147.986 126.965 148.503 127.481 149.116 127.836C149.785 128.222 150.56 128.416 151.178 128.877C152.188 129.633 152.58 130.941 152.912 132.158C153.393 133.924 153.879 135.749 153.63 137.563C153.605 137.731 153.574 137.908 153.464 138.039C153.29 138.244 152.97 138.272 152.721 138.168C152.473 138.063 152.284 137.856 152.118 137.647C151.368 136.703 150.877 135.557 150.709 134.363L150.603 133.912L150.38 133.623C149.961 133.215 149.416 132.959 148.991 132.559C148.352 131.956 148.026 131.068 147.359 130.493C146.89 130.088 146.291 129.873 145.706 129.666C144.468 129.231 143.228 128.794 141.988 128.357C142.271 128.949 142.485 129.577 142.624 130.218L142.626 130.478L142.373 130.666C141.377 131.024 140.259 130.561 139.425 129.91C138.587 129.259 137.906 128.416 137.02 127.832C136.176 127.275 134.554 126.85 135.213 125.504C135.394 125.131 135.712 124.842 136.029 124.574C136.684 124.02 137.41 123.486 138.262 123.36C139.782 123.132 141.118 124.323 142.359 125.016Z" fill="#F8A37A"/>
<path d="M77.6677 68.746C78.6656 65.6254 81.6434 58.9401 85.9952 60.4151C86.8067 60.6903 87.4841 61.2579 88.1005 61.8535C90.5612 64.2288 92.2295 67.1004 93.1629 70.362C93.3997 71.1857 93.5495 72.0234 93.6383 72.8663C93.91 75.4836 93.5843 78.1671 93.4241 80.7775C93.1298 85.5176 92.8494 90.2595 92.6213 95.0032C92.4489 98.5382 92.3984 102.08 92.3862 105.621C92.3775 107.951 92.0727 110.317 92.9365 112.55C93.6069 114.284 95.1516 114.817 96.731 115.615C101.649 118.094 120.131 124.902 122.332 125.713C123.289 126.065 124.223 126.323 125.186 126.579L125.548 126.761C126.896 126.305 128.265 125.891 129.679 125.692C130.537 125.572 131.41 125.534 132.275 125.616C133.367 125.718 134.431 126.011 135.49 126.302C137.51 126.859 139.53 127.416 141.55 127.974C142.003 128.097 142.475 128.233 142.814 128.557C143.154 128.879 143.307 129.452 143.02 129.823C144.916 130.645 146.814 131.467 148.712 132.289C149.188 132.496 149.684 132.717 150.001 133.13C150.316 133.541 150.37 134.203 149.975 134.54C150.391 134.836 150.821 135.145 151.086 135.584C151.351 136.021 151.413 136.625 151.095 137.024C150.847 137.332 150.436 137.457 150.045 137.503C147.725 137.783 145.585 135.993 143.25 136.047L142.957 136.139C142.788 136.327 143.056 136.588 143.283 136.693C144.604 137.299 145.968 137.806 147.365 138.21C147.736 138.318 148.12 138.424 148.425 138.661C148.73 138.896 148.941 139.303 148.829 139.672C148.664 140.212 147.978 140.359 147.413 140.372C145.938 140.411 144.455 140.193 143.053 139.73C143.234 140.386 144.174 140.682 144.202 141.363C144.227 141.975 143.497 142.316 142.889 142.38C141.898 142.485 140.902 142.302 139.929 142.102C138.341 141.774 136.763 141.393 135.187 141.012C132.129 140.271 129.036 139.519 126.241 138.07C124.071 136.945 122.114 135.429 119.991 134.23C108.594 132.893 97.3927 129.887 86.8606 125.328C84.9015 124.482 82.1048 123.653 80.9468 121.692C79.5066 119.256 78.9877 115.824 78.4496 113.07C77.1 106.178 76.1196 99.4665 76.0046 92.4259C75.9541 89.4185 75.9089 86.411 75.9245 83.4036C75.9472 78.4875 76.1597 73.4636 77.6677 68.746Z" fill="#F8A37A"/>
<path d="M151.69 103.881C149.193 103.881 146.499 103.099 145.158 101.21C146.42 101.368 147.68 101.607 148.947 101.671L152.698 103.837C152.369 103.865 152.031 103.881 151.69 103.881ZM154.898 103.406L151.559 101.478C153.472 101.032 155.283 99.773 155.843 97.9062C156.279 96.4556 155.91 94.8848 155.354 93.476C154.691 91.7938 153.762 90.0611 153.04 88.3301L159.925 92.3075C159.92 92.3388 159.913 92.3702 159.908 92.4015C159.021 97.4517 160.993 101.481 154.898 103.406Z" fill="#F0EEEE"/>
<path d="M152.699 103.837L148.948 101.671C149.157 101.682 149.366 101.689 149.575 101.689C150.116 101.689 150.66 101.649 151.206 101.551C151.325 101.53 151.441 101.506 151.56 101.478L154.898 103.406C154.818 103.43 154.738 103.456 154.656 103.481C154.062 103.655 153.399 103.778 152.699 103.837Z" fill="#F0EEEE"/>
<path d="M186.913 89.8139L162.482 75.6178C162.977 75.3827 163.444 75.1216 163.874 74.8185C167.775 72.0776 170.226 67.9364 169.411 63.0065C168.598 58.0887 164.816 53.972 160.252 51.9641C156.793 50.4421 152.973 50.0032 149.331 48.9932C144.323 47.6018 139.391 44.8748 136.852 40.3401C133.531 34.4088 135.353 26.3182 140.46 21.8358C143.706 18.9868 148.013 17.5885 152.342 17.5885C154.829 17.5885 157.324 18.05 159.628 18.9659C161.168 19.5772 162.686 20.3817 164.339 20.4444C164.41 20.4461 164.478 20.4479 164.548 20.4479C169.372 20.4479 168.729 13.9785 169.669 10.7934C170.933 6.5043 174.768 3.4533 178.782 1.48549C180.464 0.661797 182.223 0.275253 183.937 0.275253C189.454 0.275253 194.5 4.284 194.993 10.5897C195.258 13.9837 192.609 17.0347 190.559 19.4309C187.36 23.1645 184.268 27.3335 183.62 32.2077C182.974 37.082 185.664 42.7241 190.481 43.7237C191.141 43.8613 191.808 43.9083 192.478 43.9083C193.722 43.9083 194.979 43.7464 196.224 43.6941C196.492 43.6819 196.761 43.6767 197.029 43.6767C201.962 43.6767 207.021 45.594 210.032 49.4844C215.509 56.5597 212.089 66.8689 205.442 71.5882C202.593 73.61 199.071 74.5765 195.573 74.5765C195.207 74.5765 194.843 74.566 194.479 74.5451C193.551 74.4928 192.623 74.3744 191.697 74.3744C191.36 74.3744 191.023 74.3902 190.687 74.4302C185.441 75.0519 188.729 80.9448 188.513 84.5356C188.386 86.6445 187.817 88.4034 186.913 89.8139Z" fill="#DBD9D8"/>
<path d="M183.797 92.7532L157.469 77.4531C159.142 76.8262 160.939 76.3508 162.482 75.6177L186.913 89.8137C186.112 91.0641 185.049 92.041 183.797 92.7532Z" fill="#F0EEEE"/>
<path d="M177.895 94.183C176.993 94.183 176.061 94.103 175.117 93.9427C171.244 93.2862 167.622 91.6371 163.868 90.4843C163.325 90.3171 162.727 90.1673 162.163 90.1673C161.696 90.1673 161.25 90.2684 160.871 90.5453C160.724 90.6532 160.597 90.7803 160.488 90.9214L152.284 86.1848C151.817 84.466 151.756 82.7732 152.576 81.1624C153.576 79.2033 155.431 78.216 157.468 77.4532L183.797 92.7533C182.113 93.7094 180.086 94.183 177.895 94.183Z" fill="#F0EEEE"/>
<path d="M159.926 92.3074L153.04 88.3301C152.742 87.6143 152.477 86.8969 152.284 86.1847L160.488 90.9213C160.188 91.3113 160.021 91.8129 159.926 92.3074Z" fill="#F0EEEE"/>
<path d="M63.4265 110.719C62.3607 110.719 61.3315 110.577 60.4591 110.317C54.0698 108.424 56.1056 104.356 55.207 99.24C55.0834 98.5347 54.8221 97.8051 54.2439 97.3819C53.8643 97.1068 53.4185 97.0057 52.9518 97.0057C52.3876 97.0057 51.7903 97.1538 51.247 97.3209C47.4942 98.4755 43.8703 100.125 39.9991 100.781C39.0536 100.941 38.1219 101.021 37.2198 101.021C31.5602 101.021 26.9924 97.8608 26.6024 91.374C26.3864 87.7832 29.6743 81.892 24.4274 81.2686C24.093 81.2285 23.7587 81.2128 23.4226 81.2128C22.4961 81.2128 21.5644 81.3295 20.638 81.3834C20.274 81.4043 19.9083 81.4148 19.5426 81.4148C16.0441 81.4148 12.5229 80.4483 9.67571 78.4265C4.40094 74.6825 1.22288 67.6019 2.73791 61.2022C4.3348 54.4489 10.2888 50.2068 16.8887 48.7945C17.4216 48.6813 17.9597 48.6273 18.4943 48.6273C22.1164 48.6273 25.6533 51.1158 27.3755 54.3967C29.7073 58.8321 31.1214 61.8464 36.687 63.1455C37.7579 63.3963 38.8585 63.5182 39.9591 63.5182C43.4855 63.5182 47.0171 62.2609 49.6605 59.9239C51.3114 58.4646 52.6018 56.6413 54.1917 55.1124C56.0951 53.2839 58.5104 51.8698 61.14 51.6487C61.3542 51.6295 61.5701 51.6209 61.786 51.6209C64.2223 51.6209 66.7056 52.7632 67.9211 54.8598C68.6908 56.1885 68.9068 57.7646 68.9573 59.2988C69.0461 61.998 68.6037 64.8573 66.9041 66.9592C65.0634 69.2335 62.1047 70.2297 59.7416 71.9537C57.7703 73.3886 56.1978 75.3651 55.2453 77.6081C52.4276 84.2255 60.3302 83.6665 62.5366 87.9991C64.5201 91.8912 61.3612 96.2517 59.7608 100.314C59.2053 101.723 58.8343 103.294 59.2697 104.745C59.867 106.726 61.8697 108.022 63.9071 108.388C64.4557 108.487 64.9989 108.527 65.5423 108.527C67.0225 108.527 68.487 108.233 69.9568 108.048C68.6176 109.938 65.9219 110.719 63.4265 110.719Z" fill="#DBD9D8"/>
</svg>
