<?xml version="1.0" encoding="utf-8"?>
<!-- Generator: Adobe Illustrator 22.0.1, SVG Export Plug-In . SVG Version: 6.00 Build 0)  -->
<svg version="1.1" xmlns="http://www.w3.org/2000/svg" xmlns:xlink="http://www.w3.org/1999/xlink" x="0px" y="0px"
	 viewBox="0 0 512 512" style="enable-background:new 0 0 512 512;" xml:space="preserve">
<style type="text/css">
	.st0{fill:#A5CDBC;}
	.st1{fill:#453D80;}
	.st2{fill:#E9D178;}
	.st3{fill:#918BC6;}
	.st4{fill:#E2A2AB;}
	.st5{fill:#EECAC4;}
	.st6{fill:#7CB59C;}
	.st7{fill:#BDB9DC;}
	.st8{fill:#E2A66F;}
	.st9{fill:#DAAB5C;}
	.st10{fill:#74A0FB;}
	.st11{fill:#EDBB87;}
	.st12{fill:#EFCBC5;}
	.st13{fill:#CB9E56;}
	.st14{fill:#F8EF6C;}
	.st15{fill:#BBD9CC;}
	.st16{fill:#673528;}
	.st17{fill:#532B22;}
	.st18{fill:#7A3F2C;}
	.st19{fill:#B9865D;}
	.st20{fill:#A1ACA5;}
	.st21{fill:#B7C7BE;}
	.st22{fill:#D3E8DF;}
	.st23{fill:#AA583E;}
	.st24{fill:#944937;}
	.st25{fill:#E9A497;}
	.st26{fill:#C15E48;}
	.st27{fill:#D29289;}
	.st28{fill:#E4CAC8;}
	.st29{fill:#BFE6D5;}
	.st30{fill:#A2D6BD;}
	.st31{fill:#D5EBE2;}
	.st32{fill:#EBF3EF;}
	.st33{fill:#5F55AB;}
	.st34{fill:#2A284C;}
	.st35{fill:#D69C6C;}
	.st36{fill:#CE9567;}
	.st37{fill:#EAE7D6;}
	.st38{fill:#E1C978;}
	.st39{fill:#544C4A;}
	.st40{fill:#ACABB4;}
	.st41{fill:#BC8B63;}
	.st42{fill:#B9D7CA;}
	.st43{fill:#C9B26B;}
	.st44{fill:#817EB1;}
	.st45{fill:#3C3B4D;}
	.st46{fill:#2B2A36;}
	.st47{fill:#CC9567;}
	.st48{fill:#AF7C59;}
	.st49{fill:#A27855;}
	.st50{fill:#B4825B;}
	.st51{fill:#806045;}
	.st52{fill:#CB8694;}
	.st53{fill:#AE6E7E;}
	.st54{fill:#DDC3CB;}
	.st55{fill:#DEE8E3;}
	.st56{fill:#9B3A52;}
	.st57{fill:#C43C50;}
	.st58{fill:#538872;}
	.st59{fill:#67A78A;}
	.st60{fill:none;stroke:#E2A66F;stroke-width:6;stroke-linecap:round;stroke-miterlimit:10;}
	.st61{fill:none;stroke:#B9865D;stroke-width:6;stroke-linecap:round;stroke-miterlimit:10;}
	.st62{fill:#C4D6CD;}
	.st63{fill:#BCE9F2;}
	.st64{fill:#E2B9C1;}
	.st65{fill:#D19AA6;}
	.st66{fill:#D8ACB7;}
	.st67{fill:#C4929F;}
	.st68{fill:#CA6F63;}
	.st69{fill:#E07B67;}
	.st70{fill:#DF9589;}
	.st71{fill:#BE6761;}
	.st72{fill:#9B7380;}
	.st73{fill:#C48D99;}
	.st74{fill:#A97A86;}
	.st75{fill:#886672;}
	.st76{fill:#EEE8D6;}
	.st77{fill:#DCD7C8;}
	.st78{fill:#DB95A3;}
	.st79{fill:#E3CCD3;}
	.st80{fill:#CFBEC3;}
	.st81{fill:#EDE5E7;}
	.st82{fill:#39356B;}
	.st83{fill:#D8E8E1;}
	.st84{fill:none;stroke:#E2A66F;stroke-width:10;stroke-linecap:round;stroke-miterlimit:10;}
	.st85{fill:#C0A2A1;}
	.st86{fill:#ABAAD4;}
	.st87{fill:#514C96;}
	.st88{fill:#C1C1DF;}
	.st89{fill:#807CAE;}
	.st90{fill:#40715B;}
	.st91{fill:#DB9E6B;}
	.st92{fill:#E3C8B0;}
	.st93{fill:#653528;}
	.st94{fill:#D0C5C2;}
	.st95{fill:#EBE4E2;}
	.st96{fill:#F2F0DE;}
	.st97{fill:#668C7B;}
	.st98{fill:#65937D;}
	.st99{fill:#AD617E;}
	.st100{fill:#C97793;}
	.st101{fill:#E28DA3;}
	.st102{fill:#F9A2B3;}
	.st103{fill:#F2D7DC;}
	.st104{fill:#963346;}
	.st105{fill:#AA394E;}
	.st106{fill:#C8C8D5;}
	.st107{fill:#D5D4E8;}
	.st108{fill:#A2A1AF;}
	.st109{fill:#BABACB;}
	.st110{fill:#CCE0D7;}
	.st111{fill:#E0A0A9;}
	.st112{fill:#943346;}
	.st113{fill:#8F89C4;}
	.st114{fill:#BBB7DA;}
	.st115{fill:#C23C50;}
	.st116{fill:#A8394E;}
	.st117{fill:#EBB985;}
	.st118{fill:#DFA36F;}
	.st119{fill:#E1D3CF;}
	.st120{fill:#A59B98;}
	.st121{fill:#3E221C;}
	.st122{fill:none;stroke:#B7845D;stroke-width:8;stroke-linecap:round;stroke-miterlimit:10;}
	.st123{fill:none;stroke:#743A2F;stroke-width:7;stroke-linecap:round;stroke-miterlimit:10;}
	.st124{fill:#EEEBDA;}
	.st125{fill:#E5CD78;}
	.st126{fill:#69342A;}
	.st127{fill:#8C8482;}
	.st128{fill:#BA9D6F;}
	.st129{fill:#EFEFEF;}
	.st130{fill:none;stroke:#E2A66F;stroke-width:8;stroke-linecap:round;stroke-miterlimit:10;}
	.st131{fill:#6A9982;}
	.st132{fill:#638DCA;}
	.st133{fill:#6B96E1;}
	.st134{fill:#90B6F3;}
	.st135{fill:#6796EB;}
	.st136{fill:#C8A7A5;}
	.st137{fill:#817EAE;}
	.st138{fill:#DF9387;}
	.st139{fill:#B99151;}
	.st140{fill:#EFE8D0;}
	.st141{fill:#CC8D84;}
	.st142{fill:#304B78;}
	.st143{fill:#283F65;}
	.st144{fill:#365780;}
	.st145{fill:#CC94A0;}
	.st146{fill:#C0C6CC;}
	.st147{fill:#EBD5DA;}
	.st148{fill:#668ED4;}
	.st149{fill:#D4C3C7;}
	.st150{fill:#ACB0B4;}
	.st151{fill:#B6BDC3;}
	.st152{fill:#CE9668;}
	.st153{fill:#9C9FA0;}
	.st154{fill:#893248;}
	.st155{fill:#E7EBF0;}
	.st156{fill:#673628;}
	.st157{fill:#ECE9D8;}
	.st158{fill:#E3CB78;}
	.st159{fill:#6D9E86;}
	.st160{fill:#BE9573;}
	.st161{fill:#D1A37A;}
	.st162{fill:#D5C6B8;}
	.st163{fill:#E7D4C3;}
	.st164{fill:#B4A69A;}
	.st165{fill:#C79064;}
	.st166{fill:#BEC4C9;}
	.st167{fill:#AAADB2;}
	.st168{fill:#B4BBC1;}
	.st169{fill:#CC9468;}
	.st170{fill:#9A9D9E;}
	.st171{fill:#873248;}
	.st172{fill:#E5E9EE;}
	.st173{fill:#DBBBB8;}
	.st174{fill:#D3CAC3;}
	.st175{fill:#E4DAD1;}
	.st176{fill:#979492;}
	.st177{fill:#BAB5B0;}
	.st178{fill:#D1996C;}
	.st179{fill:#58504B;}
	.st180{fill:#E3DBDB;}
	.st181{fill:#855151;}
	.st182{fill:#BD8F9B;}
	.st183{fill:#CFC45A;}
	.st184{fill:#599178;}
	.st185{fill:#C3EDDE;}
	.st186{fill:#A2D4BF;}
	.st187{fill:#CA6F62;}
	.st188{fill:#EBDDE0;}
	.st189{fill:#D7CCCF;}
	.st190{fill:#CBC8C9;}
	.st191{fill:#A39EA0;}
	.st192{fill:#BAB2B4;}
	.st193{fill:#AA818B;}
	.st194{fill:#BF8D97;}
	.st195{fill:#C8939E;}
	.st196{fill:#E4C0C7;}
	.st197{fill:#A5BAD3;}
	.st198{fill:#B3CAEC;}
	.st199{fill:#6C95DC;}
	.st200{fill:#6E9AE6;}
	.st201{fill:#D4A67D;}
	.st202{fill:#D3D1C2;}
	.st203{fill:#827FB3;}
	.st204{fill:#646386;}
	.st205{fill:#6F6D97;}
	.st206{fill:#5A597A;}
	.st207{fill:#B6B4DA;}
	.st208{fill:#D0CEC0;}
	.st209{fill:#DAB9B6;}
	.st210{fill:#7E7AAB;}
	.st211{fill:#DBC5C5;}
	.st212{fill:#E0C18D;}
	.st213{fill:#7D9DC8;}
	.st214{fill:#9EBEEF;}
	.st215{fill:#C3D6F0;}
	.st216{fill:#B79872;}
	.st217{fill:#A68962;}
	.st218{fill:#70665E;}
	.st219{fill:#8E9791;}
	.st220{fill:#535399;}
	.st221{fill:#E0EBE4;}
	.st222{fill:#C08B96;}
	.st223{fill:#DDEDE7;}
	.st224{fill:#A68048;}
	.st225{fill:#474085;}
	.st226{fill:#7C7C9C;}
	.st227{fill:#9E9DCD;}
	.st228{fill:#4D291F;}
	.st229{fill:#854735;}
	.st230{fill:#9C533F;}
	.st231{fill:#D15F2E;}
	.st232{fill:#C26862;}
	.st233{fill:#464648;}
	.st234{fill:#3A3A3C;}
	.st235{fill:#5E5E63;}
	.st236{fill:#4F4F55;}
	.st237{fill:#7F7F86;}
	.st238{fill:#686871;}
	.st239{fill:#548A72;}
	.st240{fill:#67A98C;}
	.st241{fill:#CC9366;}
	.st242{fill:#CEB76E;}
	.st243{fill:#E1D4AB;}
	.st244{fill:#A87958;}
	.st245{fill:#92B5A5;}
	.st246{fill:#B68B4F;}
	.st247{fill:#D5B788;}
	.st248{fill:#CDE0D8;}
	.st249{fill:#6F6D95;}
	.st250{fill:#DAE1E6;}
	.st251{fill:#E0B7BF;}
	.st252{fill:#C2909D;}
	.st253{fill:#D6AAB5;}
	.st254{fill:#807FB1;}
	.st255{fill:#646384;}
	.st256{fill:#B4B2D8;}
	.st257{fill:#E8E5D4;}
	.st258{fill:#DFC778;}
	.st259{fill:#CF98A4;}
	.st260{fill:#99737F;}
	.st261{fill:none;stroke:#538872;stroke-width:10;stroke-linecap:round;stroke-miterlimit:10;}
	.st262{fill:#87485A;}
	.st263{fill:#A25365;}
	.st264{fill:#A4BDB1;}
	.st265{fill:#C7A23A;}
	.st266{fill:#E6BE3F;}
	.st267{fill:#A77D5A;}
	.st268{fill:#DDD9D5;}
	.st269{fill:#9F7654;}
	.st270{fill:#8B6A4D;}
	.st271{fill:#CACCCB;}
	.st272{fill:#C7C7D3;}
	.st273{fill:#D7D6E8;}
	.st274{fill:#E9DBDE;}
	.st275{fill:#D5CACD;}
	.st276{fill:#C9C6C7;}
	.st277{fill:#A19C9E;}
	.st278{fill:#B8AFB2;}
	.st279{fill:#6C9C84;}
	.st280{fill:#8481B6;}
	.st281{fill:#82653B;}
	.st282{fill:#D1CFC0;}
	.st283{fill:#C6919C;}
	.st284{fill:#A88089;}
	.st285{fill:#CECCBE;}
	.st286{fill:#739EF9;}
	.st287{fill:#A3B8D1;}
	.st288{fill:#B1C8EA;}
	.st289{fill:#6B93DA;}
	.st290{fill:#6D98E4;}
	.st291{fill:#BCC2C7;}
	.st292{fill:#A8ABB0;}
	.st293{fill:#B2B9BF;}
	.st294{fill:#CA9268;}
	.st295{fill:#DDA16E;}
	.st296{fill:#989B9C;}
	.st297{fill:#C03C50;}
	.st298{fill:#853248;}
	.st299{fill:#E3E7EC;}
	.st300{fill:#AC844B;}
	.st301{fill:#C6BB5A;}
	.st302{fill:#94B5A6;}
	.st303{fill:#C7E0D5;}
	.st304{fill:#6892DC;}
	.st305{fill:#B7D5C8;}
	.st306{fill:#A2BBAF;}
	.st307{fill:#528672;}
	.st308{fill:#67A588;}
	.st309{fill:#C5A03A;}
	.st310{fill:#E4BC3F;}
	.st311{fill:#DCE6E1;}
	.st312{fill:#993A52;}
	.st313{fill:#983347;}
</style>
<g id="BULINE">
	<g>
		<g>
			<path id="XMLID_2559_" class="st13" d="M512,256c0,3.3-0.1,6.5-0.2,9.8c-0.3,7.8-0.9,15.5-1.9,23.2c-1,7.9-2.4,15.7-4.1,23.3
				c-1.1,4.8-2.3,9.5-3.6,14.2c-1.1,4-2.4,7.9-3.7,11.8c-1,2.8-2,5.6-3,8.3c-0.4,1.2-0.9,2.3-1.3,3.5c-0.7,1.8-1.4,3.5-2.2,5.3
				c-0.5,1.1-0.9,2.2-1.4,3.3c-3.3,7.6-7,14.9-11,22.1c-2.3,4.1-4.7,8.1-7.2,12c-0.9,1.5-1.9,3-2.9,4.4c-3.5,5.3-7.3,10.5-11.2,15.6
				c-1.2,1.5-2.4,3.1-3.7,4.6c-2.5,3.1-5.1,6.1-7.7,9c-2.2,2.4-4.4,4.8-6.7,7.2c-1.4,1.5-2.8,2.9-4.2,4.3c-1.7,1.7-3.4,3.3-5.1,4.9
				c-0.1,0.1-0.2,0.2-0.3,0.3c-1.2,1.2-2.5,2.3-3.8,3.5c-1.8,1.6-3.5,3.1-5.4,4.7c-1.5,1.2-2.9,2.5-4.4,3.7c-1,0.8-2.1,1.7-3.1,2.5
				c-0.8,0.6-1.5,1.2-2.3,1.8c-3.3,2.5-6.7,5-10.1,7.4c-2.2,1.5-4.5,3-6.8,4.5c-3,2-6.1,3.8-9.2,5.7c-0.5,0.3-1,0.6-1.5,0.9
				c-0.2,0.1-0.4,0.2-0.5,0.3c-0.2,0.1-0.4,0.2-0.6,0.3c-1.4,0.8-2.8,1.6-4.2,2.4c-0.5,0.3-1.1,0.6-1.6,0.9
				c-1.1,0.6-2.1,1.1-3.2,1.7c-0.8,0.4-1.5,0.8-2.3,1.2c-0.1,0.1-0.3,0.1-0.4,0.2c-0.6,0.3-1.3,0.7-1.9,1c-1.6,0.8-3.1,1.5-4.7,2.3
				c-0.1,0-0.2,0.1-0.3,0.1c-1,0.5-2.1,1-3.1,1.4c-3.6,1.6-7.1,3.1-10.8,4.6c-0.2,0.1-0.4,0.2-0.6,0.2c-3.7,1.5-7.5,2.9-11.3,4.1
				c-1.5,0.5-3.1,1-4.7,1.5c-0.8,0.3-1.6,0.5-2.5,0.8c-0.5,0.2-1,0.3-1.5,0.5c-6.5,2-13.2,3.7-19.9,5.1c-0.4,0.1-0.8,0.2-1.3,0.3
				c-4.1,0.9-8.2,1.6-12.3,2.3c-1.9,0.3-3.7,0.6-5.6,0.8c-2,0.3-4.1,0.5-6.1,0.8c-1.4,0.1-2.8,0.3-4.2,0.4c-1.4,0.1-2.9,0.3-4.3,0.4
				c-4.2,0.3-8.4,0.6-12.7,0.7c-0.3,0-0.6,0-0.9,0c-2.2,0.1-4.3,0.1-6.5,0.1h-0.3c-0.7,0-1.4,0-2.1,0c-1.5,0-3,0-4.5-0.1
				c-5-0.1-10-0.4-15-0.8c-0.9-0.1-1.8-0.1-2.7-0.2c-0.2,0-0.3,0-0.5,0c-2.9-0.3-5.9-0.6-8.8-1c-0.4,0-0.9-0.1-1.3-0.2
				c-6.6-0.9-13.2-2.1-19.7-3.5c-1.4-0.3-2.8-0.6-4.1-0.9c-3.3-0.8-6.6-1.6-9.9-2.5c-0.4-0.1-0.8-0.2-1.1-0.3
				c-1.3-0.4-2.6-0.7-3.9-1.1c-0.7-0.2-1.4-0.4-2.2-0.7c-1.4-0.4-2.7-0.9-4.1-1.3c-2.2-0.7-4.3-1.4-6.4-2.2c0,0-0.1,0-0.1,0
				c-1.9-0.7-3.8-1.4-5.6-2.1c-0.2-0.1-0.3-0.1-0.5-0.2c-7.1-2.7-14-5.8-20.7-9.1c0,0,0,0-0.1,0c-1.5-0.7-3-1.5-4.4-2.2
				c-1.3-0.7-2.6-1.4-3.9-2.1c-0.3-0.2-0.7-0.3-1-0.5c-0.7-0.4-1.3-0.7-2-1.1c-0.4-0.2-0.7-0.4-1-0.6c-4-2.3-8-4.6-11.8-7.1
				c-3.1-2-6.1-4-9-6c-2.4-1.6-4.7-3.3-7-5.1c-0.1-0.1-0.2-0.2-0.3-0.2c-1.3-1-2.6-2-3.9-3c-2.6-2-5.1-4-7.5-6.2
				c-2.2-1.9-4.4-3.8-6.6-5.8c-0.9-0.8-1.7-1.6-2.6-2.4c-0.1-0.1-0.2-0.2-0.3-0.3c-3.2-3-6.3-6.1-9.4-9.2c-2.3-2.3-4.5-4.8-6.7-7.2
				c-0.5-0.6-1.1-1.2-1.6-1.8c-7.5-8.5-14.4-17.5-20.7-27c-0.1-0.1-0.2-0.3-0.3-0.4c-1-1.5-1.9-3-2.9-4.4c-0.4-0.7-0.8-1.3-1.2-2
				c-2-3.3-4-6.6-5.9-10c-4-7.2-7.7-14.5-11-22.1c-0.5-1.1-1-2.2-1.4-3.3c-0.7-1.8-1.5-3.5-2.2-5.3c-0.5-1.2-0.9-2.3-1.4-3.5
				c-0.1-0.2-0.2-0.5-0.3-0.7c-0.4-1-0.7-2-1.1-3c-0.5-1.2-0.9-2.5-1.3-3.8c-1.4-4.2-2.8-8.4-4-12.6c-1.3-4.7-2.5-9.4-3.6-14.2
				c-1.7-7.7-3.1-15.4-4.1-23.3c-0.2-1.3-0.3-2.5-0.5-3.8c-0.7-6.4-1.2-12.8-1.5-19.4C0.1,262.5,0,259.3,0,256c0-1.8,0-3.6,0.1-5.4
				c0.6-27.1,5.3-53.2,13.7-77.7C27.6,132.5,51.3,96.7,82,68.2c0.7-0.6,1.3-1.2,2-1.8c5.8-5.2,11.8-10.2,18-14.9
				c2.4-1.8,4.8-3.6,7.3-5.3c2.5-1.8,5.1-3.5,7.7-5.2c4.9-3.2,9.9-6.2,15-9c1.3-0.7,2.7-1.5,4-2.2c11.7-6.2,24-11.6,36.7-16
				c1.1-0.4,2.2-0.8,3.3-1.1c1.7-0.6,3.3-1.1,5-1.6c1.5-0.5,3.1-0.9,4.6-1.4c5.1-1.5,10.3-2.8,15.6-3.9c4.9-1.1,9.8-2,14.8-2.8
				c9.4-1.5,19-2.4,28.7-2.9c0,0,0.1,0,0.1,0c1.6-0.1,3.2-0.1,4.8-0.2c0,0,0,0,0,0h0c0,0,0,0,0.1,0C251.9,0,253.9,0,256,0
				c2.1,0,4.2,0,6.4,0.1c0,0,0,0,0,0h0.1c1.1,0,2.1,0.1,3.2,0.1h0c6.4,0.2,12.8,0.7,19,1.4c1.1,0.1,2.2,0.2,3.3,0.4
				c7.4,0.9,14.8,2.2,22,3.7c4.4,0.9,8.7,2,13,3.2c1.1,0.3,2.3,0.6,3.4,0.9c12.9,3.7,25.4,8.3,37.4,13.9c4.2,1.9,8.3,4,12.3,6.1
				c1.3,0.7,2.6,1.4,4,2.1c5.8,3.2,11.5,6.7,17,10.3c1.5,1,3,2,4.5,3C406.8,49,412,52.9,417,57c3.3,2.7,6.6,5.5,9.8,8.3
				c1.8,1.6,3.5,3.2,5.2,4.8c29.9,28.3,53,63.8,66.5,103.6C507.2,199.5,512,227.2,512,256z"/>
		</g>
	</g>
</g>
<g id="ICON_1_">
	<g id="XMLID_2489_">
		<g id="XMLID_2552_">
			<path id="XMLID_2558_" class="st224" d="M201.2,5.9v500.2c-1.4-0.3-2.8-0.6-4.1-0.9c-3.3-0.8-6.6-1.6-9.9-2.5
				c-0.4-0.1-0.8-0.2-1.1-0.3c-1.3-0.4-2.6-0.7-3.9-1.1c-0.7-0.2-1.4-0.4-2.2-0.7c-1.4-0.4-2.7-0.9-4.1-1.3V12.8
				c1.7-0.6,3.3-1.1,5-1.6c1.5-0.5,3.1-0.9,4.6-1.4C190.8,8.3,196,7,201.2,5.9z"/>
			<path id="XMLID_2557_" class="st224" d="M310,5.7v500.6c-0.4,0.1-0.8,0.2-1.3,0.3c-4.1,0.9-8.2,1.6-12.3,2.3
				c-1.9,0.3-3.7,0.6-5.6,0.8c-2,0.3-4.1,0.5-6.1,0.8V1.6c1.1,0.1,2.2,0.2,3.3,0.4C295.4,2.9,302.8,4.2,310,5.7z"/>
			<path id="XMLID_2556_" class="st224" d="M426.8,65.3v381.4c-1.8,1.6-3.5,3.1-5.4,4.7c-1.5,1.2-2.9,2.5-4.4,3.7
				c-1,0.8-2.1,1.7-3.1,2.5c-0.8,0.6-1.5,1.2-2.3,1.8c-3.3,2.5-6.7,5-10.1,7.4V45.3C406.8,49,412,52.9,417,57
				C420.3,59.7,423.6,62.4,426.8,65.3z"/>
			<path id="XMLID_2555_" class="st224" d="M109.3,46.2v419.6c-2.4-1.6-4.7-3.3-7-5.1c-0.1-0.1-0.2-0.2-0.3-0.2c-1.3-1-2.6-2-3.9-3
				c-2.6-2-5.1-4-7.5-6.2c-2.2-1.9-4.4-3.8-6.6-5.8V66.4c5.8-5.2,11.8-10.2,18-14.9C104.4,49.7,106.8,47.9,109.3,46.2z"/>
			<path id="XMLID_2554_" class="st224" d="M13.8,172.9v166.1c-1.4-4.2-2.8-8.4-4-12.6c-1.3-4.7-2.5-9.4-3.6-14.2
				c-1.7-7.7-3.1-15.4-4.1-23.3c-0.2-1.3-0.3-2.5-0.5-3.8c-0.7-6.4-1.2-12.8-1.5-19.4C0.1,262.5,0,259.3,0,256c0-1.8,0-3.6,0.1-5.4
				C0.6,223.5,5.4,197.4,13.8,172.9z"/>
			<path id="XMLID_2553_" class="st224" d="M512,256c0,3.3-0.1,6.5-0.2,9.8c-0.3,7.8-0.9,15.5-1.9,23.2c-1,7.9-2.4,15.7-4.1,23.3
				c-1.1,4.8-2.3,9.5-3.6,14.2c-1.1,4-2.4,7.9-3.7,11.8V173.7C507.2,199.5,512,227.2,512,256z"/>
		</g>
		<g id="XMLID_2490_">
			<path id="XMLID_2551_" class="st82" d="M394.7,185.2v286c-3,2-6.1,3.8-9.2,5.7c-0.5,0.3-1,0.6-1.5,0.9c-0.2,0.1-0.4,0.2-0.5,0.3
				c-0.2,0.1-0.4,0.2-0.6,0.3c-1.4,0.8-2.8,1.6-4.2,2.4c-0.5,0.3-1.1,0.6-1.6,0.9c-1.1,0.6-2.1,1.1-3.2,1.7
				c-0.8,0.4-1.5,0.8-2.3,1.2c-0.1,0.1-0.3,0.1-0.4,0.2c-0.6,0.3-1.3,0.7-1.9,1c-1.6,0.8-3.1,1.5-4.7,2.3c-0.1,0-0.2,0.1-0.3,0.1
				c-1,0.5-2.1,1-3.1,1.4c-3.6,1.6-7.1,3.1-10.8,4.6c-0.2,0.1-0.4,0.2-0.6,0.2c-3.7,1.5-7.5,2.9-11.3,4.1c-1.5,0.5-3.1,1-4.7,1.5
				c-0.8,0.3-1.6,0.5-2.5,0.8c-0.5,0.2-1,0.3-1.5,0.5c-7,2.1-14,3.9-21.2,5.4c-4.1,0.9-8.2,1.6-12.3,2.3c-1.9,0.3-3.7,0.6-5.6,0.8
				c-3.4,0.5-6.9,0.9-10.3,1.2c-1.4,0.1-2.9,0.3-4.3,0.4c-4.2,0.3-8.4,0.6-12.7,0.7c-0.3,0-0.6,0-0.9,0c-2.2,0.1-4.3,0.1-6.5,0.1
				h-0.3c-0.7,0-1.4,0-2.1,0c-1.5,0-3,0-4.5-0.1c-5-0.1-10-0.4-15-0.8c-0.9-0.1-1.8-0.1-2.7-0.2c-0.2,0-0.3,0-0.5,0
				c-2.9-0.3-5.9-0.6-8.8-1c-0.4,0-0.9-0.1-1.3-0.2c-8.1-1.1-16-2.6-23.8-4.4c-3.3-0.8-6.6-1.6-9.9-2.5c-0.4-0.1-0.8-0.2-1.1-0.3
				c-1.3-0.4-2.6-0.7-3.9-1.1c-0.7-0.2-1.4-0.4-2.2-0.7c-3.5-1.1-7-2.3-10.5-3.5c0,0-0.1,0-0.1,0c-1.9-0.7-3.8-1.4-5.6-2.1
				c-0.2-0.1-0.3-0.1-0.5-0.2c-7.1-2.7-14-5.8-20.7-9.1c0,0,0,0-0.1,0c-1.5-0.7-3-1.5-4.4-2.2c-1.3-0.7-2.6-1.4-3.9-2.1
				c-0.3-0.2-0.7-0.3-1-0.5c-0.7-0.4-1.3-0.7-2-1.1V185.2c0-7.4,5.3-13.7,12.6-15.9c1.7-0.5,3.6-0.8,5.5-0.8h227.3
				c1.9,0,3.7,0.3,5.5,0.8C389.4,171.5,394.7,177.7,394.7,185.2z"/>
			<path id="XMLID_2550_" class="st225" d="M371.3,185.2v299.4c-0.6,0.3-1.3,0.7-1.9,1c-1.6,0.8-3.1,1.5-4.7,2.3
				c-0.1,0-0.2,0.1-0.3,0.1c-1,0.5-2.1,1-3.1,1.4c-3.6,1.6-7.1,3.1-10.8,4.6c-0.2,0.1-0.4,0.2-0.6,0.2c-3.7,1.5-7.5,2.9-11.3,4.1
				c-1.5,0.5-3.1,1-4.7,1.5c-0.8,0.3-1.6,0.5-2.5,0.8c-0.5,0.2-1,0.3-1.5,0.5c-7,2.1-14,3.9-21.2,5.4c-4.1,0.9-8.2,1.6-12.3,2.3
				c-1.9,0.3-3.7,0.6-5.6,0.8c-3.4,0.5-6.9,0.9-10.3,1.2c-1.4,0.1-2.9,0.3-4.3,0.4c-4.2,0.3-8.4,0.6-12.7,0.7c-0.3,0-0.6,0-0.9,0
				c-2.2,0.1-4.3,0.1-6.5,0.1h-0.3c-0.7,0-1.4,0-2.1,0c-1.5,0-3,0-4.5-0.1c-5-0.1-10-0.4-15-0.8c-0.9-0.1-1.8-0.1-2.7-0.2
				c-0.2,0-0.3,0-0.5,0c-2.9-0.3-5.9-0.6-8.8-1c-0.4,0-0.9-0.1-1.3-0.2c-8.1-1.1-16-2.6-23.8-4.4c-3.3-0.8-6.6-1.6-9.9-2.5
				c-0.4-0.1-0.8-0.2-1.1-0.3c-1.3-0.4-2.6-0.7-3.9-1.1c-0.7-0.2-1.4-0.4-2.2-0.7c-3.5-1.1-7-2.3-10.5-3.5c0,0-0.1,0-0.1,0
				c-1.9-0.7-3.8-1.4-5.6-2.1c-0.2-0.1-0.3-0.1-0.5-0.2c-7.1-2.7-14-5.8-20.7-9.1c0,0,0,0-0.1,0c-1.5-0.7-3-1.5-4.4-2.2
				c-1.3-0.7-2.6-1.4-3.9-2.1c-0.3-0.2-0.7-0.3-1-0.5c-0.7-0.4-1.3-0.7-2-1.1V185.2c0-7.4,5.3-13.7,12.6-15.9
				c1.7-0.5,3.6-0.8,5.5-0.8h203.9c1.9,0,3.7,0.3,5.5,0.8C366,171.5,371.3,177.7,371.3,185.2z"/>
			<path id="XMLID_2549_" class="st226" d="M356,438H169.2c-9.2,0-14.2-7.5-14.2-16.7V295c0-9.2,7.5-16.7,16.7-16.7h182.6
				c9.2,0,16.7,7.5,16.7,16.7v126.3C370.9,430.5,365.3,438,356,438z"/>
			<path id="XMLID_2548_" class="st227" d="M340,437.8H185.9c-7.8,0-14.1-6.3-14.1-14.1V317.1c0-7.8,6.3-14.1,14.1-14.1H340
				c7.8,0,14.1,6.3,14.1,14.1v106.6C354.1,431.5,347.8,437.8,340,437.8z"/>
			<g id="XMLID_2543_">
				<path id="XMLID_2547_" class="st228" d="M241.3,438h-72.1c0-19.9,16.1-36.1,36.1-36.1S241.3,418.1,241.3,438z"/>
				<path id="XMLID_2546_" class="st18" d="M240.8,438h-71c3-16.9,17.8-29.7,35.5-29.7S237.7,421.1,240.8,438z"/>
				<path id="XMLID_2545_" class="st229" d="M228.9,438h-47.3c2-11.2,11.8-19.8,23.7-19.8C217.1,418.2,226.9,426.7,228.9,438z"/>
				<path id="XMLID_2544_" class="st230" d="M217.1,437.9h-24.6c1-5.9,6.2-10.3,12.3-10.3C210.9,427.6,216,432.1,217.1,437.9z"/>
			</g>
			<g id="XMLID_2538_">
				<path id="XMLID_2542_" class="st228" d="M356,438h-72.1c0-19.9,16.1-36.1,36.1-36.1C339.9,401.9,356,418.1,356,438z"/>
				<path id="XMLID_2541_" class="st18" d="M355.5,438h-71c3-16.9,17.8-29.7,35.5-29.7C337.7,408.3,352.5,421.1,355.5,438z"/>
				<path id="XMLID_2540_" class="st229" d="M343.6,438h-47.3c2-11.2,11.8-19.8,23.7-19.8C331.8,418.2,341.6,426.7,343.6,438z"/>
				<path id="XMLID_2539_" class="st230" d="M332.3,438h-24.6c1-5.9,6.2-10.3,12.3-10.3C326.1,427.7,331.2,432.1,332.3,438z"/>
			</g>
			<g id="XMLID_2533_">
				<path id="XMLID_2537_" class="st228" d="M299,438h-72.1c0-19.9,16.1-36.1,36.1-36.1C282.9,401.9,299,418.1,299,438z"/>
				<path id="XMLID_2536_" class="st18" d="M298.5,438h-71c3-16.9,17.8-29.7,35.5-29.7C280.7,408.3,295.4,421.1,298.5,438z"/>
				<path id="XMLID_2535_" class="st229" d="M286.6,438h-47.3c2-11.2,11.8-19.8,23.7-19.8C274.8,418.2,284.6,426.7,286.6,438z"/>
				<path id="XMLID_2534_" class="st230" d="M275.3,438h-24.6c1-5.9,6.2-10.3,12.3-10.3C269.1,427.7,274.2,432.1,275.3,438z"/>
			</g>
			<g id="XMLID_2527_">
				<path id="XMLID_2532_" class="st228" d="M223.5,374.9l-7.4,8.2l-3.7-14.1c0,0,0-0.1,0-0.1l0,0l-11.5-2.8l-0.6-0.1
					c-4.7,19.4,7.2,38.9,26.6,43.5s38.9-7.2,43.5-26.6l-0.6-0.1l-11.5-2.8l-32.5-7.9l-0.4,0.5L223.5,374.9z"/>
				<path id="XMLID_2531_" class="st18" d="M223.5,374.9l-7.4,8.2l-3.7-14.1c0,0,0-0.1,0-0.1l0,0l-11.5-2.8
					c-1,17.1,10.3,33,27.5,37.2c17.2,4.2,34.6-4.8,41.5-20.5l-11.5-2.8l-32.5-7.9l-0.4,0.5L223.5,374.9z"/>
				<path id="XMLID_2530_" class="st229" d="M212.5,369l3.7,14.1C213.6,379.1,212.2,374.1,212.5,369z"/>
				<path id="XMLID_2529_" class="st229" d="M225.6,372.7l0.4-0.5l32.5,7.9c-4.6,10.5-16.2,16.4-27.7,13.6
					c-6.3-1.5-11.5-5.4-14.7-10.5l7.4-8.2L225.6,372.7z"/>
				<path id="XMLID_2528_" class="st230" d="M225.6,372.7l21.8,5.3c-2.4,5.4-8.4,8.6-14.4,7.1c-5-1.2-8.6-5.3-9.4-10.1L225.6,372.7z
					"/>
			</g>
			<g id="XMLID_2521_">
				<path id="XMLID_2526_" class="st228" d="M305.7,369.8l-0.4-0.5l-32.5,7.9l-11.5,2.8l-0.6,0.1c4.7,19.4,24.2,31.3,43.5,26.6
					c19.4-4.7,31.3-24.2,26.6-43.5l-0.6,0.1l-11.5,2.8l0,0c0,0,0,0.1,0,0.1l-3.7,14.1l-7.4-8.2L305.7,369.8z"/>
				<path id="XMLID_2525_" class="st18" d="M305.7,369.8l-0.4-0.5l-32.5,7.9l-11.5,2.8c6.9,15.7,24.2,24.7,41.5,20.5
					c17.2-4.2,28.6-20.1,27.5-37.2l-11.5,2.8l0,0c0,0,0,0.1,0,0.1l-3.7,14.1l-7.4-8.2L305.7,369.8z"/>
				<path id="XMLID_2524_" class="st229" d="M318.8,366.2l-3.7,14.1C317.7,376.2,319.1,371.2,318.8,366.2z"/>
				<path id="XMLID_2523_" class="st229" d="M307.8,372l7.4,8.2c-3.2,5.1-8.3,9-14.7,10.5c-11.5,2.8-23-3.2-27.7-13.6l32.5-7.9
					l0.4,0.5L307.8,372z"/>
				<path id="XMLID_2522_" class="st230" d="M307.8,372c-0.8,4.8-4.4,8.9-9.4,10.1c-6,1.5-12-1.7-14.4-7.1l21.8-5.3L307.8,372z"/>
			</g>
			<g id="XMLID_2518_">
				<path id="XMLID_2520_" class="st231" d="M278.1,365.6c-10,10.7-27.2,9-34.6-3.6c-5.6-9.7-7.1-24.3,7.9-45
					c0,0,11.7-14.9-4.8-33.5C246.7,283.5,308.2,333.3,278.1,365.6z"/>
				<path id="XMLID_2519_" class="st232" d="M271.6,370.1c-7.4,6.4-18.8,4-22.8-4.9c-3.1-6.8-3-16.7,8.5-29.4c0,0,8.9-9.1-0.7-22.7
					C256.6,313,294.1,350.7,271.6,370.1z"/>
			</g>
			<path id="XMLID_2517_" class="st82" d="M394.7,185.2v13.5H131.2v-13.5c0-7.4,5.3-13.7,12.6-15.9h238.2
				C389.4,171.4,394.7,177.7,394.7,185.2z"/>
			<path id="XMLID_2515_" class="st233" d="M260.9,130.9v13.5H201v-13.5c0-16.5,13.4-30,30-30c1.2,0,2.3,0.1,3.4,0.2
				c6.9,0.8,13.1,3.9,17.8,8.6C257.6,115.1,260.9,122.6,260.9,130.9z"/>
			<path id="XMLID_2514_" class="st234" d="M260.9,130.9v13.5h-53.2v-13.5c0-15.4,11.6-28.1,26.6-29.8c6.9,0.8,13.1,3.9,17.8,8.6
				C257.6,115.1,260.9,122.6,260.9,130.9z"/>
			<path id="XMLID_2513_" class="st233" d="M320.3,130.9v13.5h-59.9v-13.5c0-16.5,13.4-30,30-30c1.2,0,2.4,0.1,3.5,0.2
				c6.9,0.8,13,3.9,17.6,8.6C317,115.1,320.3,122.6,320.3,130.9z"/>
			<path id="XMLID_2512_" class="st234" d="M320.3,130.9v13.5h-52.8v-13.5c0-15.3,11.5-28,26.4-29.8c6.9,0.8,13,3.9,17.6,8.6
				C317,115.1,320.3,122.6,320.3,130.9z"/>
			<path id="XMLID_2511_" class="st235" d="M350.3,142.8v13.5h-59.9v-13.5c0-16.5,13.4-30,30-30c1.2,0,2.4,0.1,3.5,0.2
				c6.9,0.8,13,3.9,17.6,8.6C346.9,127,350.3,134.5,350.3,142.8z"/>
			<path id="XMLID_2510_" class="st236" d="M350.3,142.8v13.5h-52.8v-13.5c0-15.4,11.5-28,26.4-29.8c6.9,0.8,13,3.9,17.6,8.6
				C346.9,127,350.3,134.5,350.3,142.8z"/>
			<path id="XMLID_2509_" class="st235" d="M290.3,144.8v13.5h-59.9v-13.5c0-16.5,13.4-30,30-30c1.2,0,2.5,0.1,3.7,0.2
				c6.8,0.8,12.9,3.9,17.5,8.5C287,129.1,290.3,136.6,290.3,144.8z"/>
			<path id="XMLID_2508_" class="st236" d="M290.3,144.8v13.5h-52.6v-13.5c0-15.3,11.5-27.9,26.3-29.7c6.8,0.8,12.9,3.9,17.5,8.5
				C287,129.1,290.3,136.6,290.3,144.8z"/>
			<path id="XMLID_2507_" class="st235" d="M231,144.8v13.5H171v-13.5c0-16.5,13.4-30,30-30c1.1,0,2.1,0.1,3.2,0.2
				c7,0.7,13.3,3.9,18,8.6C227.6,129.1,231,136.6,231,144.8z"/>
			<path id="XMLID_2506_" class="st236" d="M231,144.8v13.5h-53.6v-13.5c0-15.5,11.7-28.2,26.8-29.8c7,0.7,13.3,3.9,18,8.6
				C227.6,129.1,231,136.6,231,144.8z"/>
			<path id="XMLID_2505_" class="st237" d="M201.9,156.3v3H142v-3c0-16.5,13.4-30,30-30c1.2,0,2.5,0.1,3.7,0.2
				c6.8,0.8,12.9,3.9,17.5,8.5C198.6,140.5,201.9,148,201.9,156.3z"/>
			<path id="XMLID_2504_" class="st238" d="M201.9,156.3v3h-52.6v-3c0-15.3,11.5-27.9,26.3-29.7c6.8,0.8,12.9,3.9,17.5,8.5
				C198.6,140.5,201.9,148,201.9,156.3z"/>
			<path id="XMLID_2503_" class="st237" d="M260.9,156.3v3H201v-3c0-16.5,13.4-30,30-30c1.1,0,2.1,0.1,3.2,0.2
				c7,0.7,13.3,3.9,18,8.6C257.6,140.5,260.9,148,260.9,156.3z"/>
			<path id="XMLID_2502_" class="st238" d="M260.9,156.3v3h-53.6v-3c0-15.5,11.7-28.2,26.8-29.8c7,0.7,13.3,3.9,18,8.6
				C257.6,140.5,260.9,148,260.9,156.3z"/>
			<path id="XMLID_2501_" class="st237" d="M320.3,156.3v3h-59.9v-3c0-16.5,13.4-30,30-30c1.2,0,2.5,0.1,3.7,0.2
				c6.8,0.8,12.9,3.9,17.5,8.5C317,140.5,320.3,148,320.3,156.3z"/>
			<path id="XMLID_2500_" class="st238" d="M320.3,156.3v3h-52.6v-3c0-15.3,11.5-27.9,26.3-29.7c6.8,0.8,12.9,3.9,17.5,8.5
				C317,140.5,320.3,148,320.3,156.3z"/>
			<path id="XMLID_2499_" class="st237" d="M379.3,156.3v3h-59.9v-3c0-16.5,13.4-30,30-30c1.4,0,2.7,0.1,4,0.3
				c6.7,0.9,12.7,4,17.2,8.5C376,140.5,379.3,148,379.3,156.3z"/>
			<path id="XMLID_2498_" class="st238" d="M379.3,156.3v3h-51.9v-3c0-15.2,11.3-27.7,26-29.7c6.7,0.9,12.7,4,17.2,8.5
				C376,140.5,379.3,148,379.3,156.3z"/>
			<path id="XMLID_2497_" class="st42" d="M166.5,125.4c0.4-1.1,2.1-2.6,2.8-3.6c2.1-3,3.8-6.4,4.8-9.9c1.7-5.7,1.2-11.7-1.2-17.1
				c-2.2-4.9-6.2-8.4-8.6-13c-4.8-9.6-3.4-20.4,2.2-29.4c-0.3,0.5-2.1,1.1-2.6,1.5c-2.1,1.4-3.9,3.2-5.3,5.2
				c-5.3,7.8-4,17.8-0.9,26.2c2.2,6.1,7.1,10.5,9.1,16.8C169.3,109.6,169.1,117.8,166.5,125.4z"/>
			<path id="XMLID_2496_" class="st42" d="M205.7,110.1c0.4-1.1,2.1-2.6,2.8-3.6c2.1-3,3.8-6.4,4.8-9.9c1.7-5.7,1.2-11.7-1.2-17.1
				c-2.2-4.9-6.2-8.4-8.6-13c-4.8-9.6-3.4-20.4,2.2-29.4c-0.3,0.5-2.1,1.1-2.6,1.5c-2.1,1.4-3.9,3.2-5.3,5.2
				c-5.3,7.8-4,17.8-0.9,26.2c2.2,6.1,7.1,10.5,9.1,16.8C208.4,94.3,208.2,102.5,205.7,110.1z"/>
			<path id="XMLID_2495_" class="st42" d="M238.8,124.2c0.4-1.1,2.1-2.6,2.8-3.6c2.1-3,3.8-6.4,4.8-9.9c1.7-5.7,1.2-11.7-1.2-17.1
				c-2.2-4.9-6.2-8.4-8.6-13c-4.8-9.6-3.4-20.4,2.2-29.4c-0.3,0.5-2.1,1.1-2.6,1.5c-2.1,1.4-3.9,3.2-5.3,5.2
				c-5.3,7.8-4,17.8-0.9,26.2c2.2,6.1,7.1,10.5,9.1,16.8C241.6,108.4,241.3,116.6,238.8,124.2z"/>
			<path id="XMLID_2494_" class="st42" d="M358,127.7c-0.4-1.1-2.1-2.6-2.8-3.6c-2.1-3-3.8-6.4-4.8-9.9c-1.7-5.7-1.2-11.7,1.2-17.1
				c2.2-4.9,6.2-8.4,8.6-13c4.8-9.6,3.4-20.4-2.2-29.4c0.3,0.5,2.1,1.1,2.6,1.5c2.1,1.4,3.9,3.2,5.3,5.2c5.3,7.8,4,17.8,0.9,26.2
				c-2.2,6.1-7.1,10.5-9.1,16.8C355.2,112,355.4,120.2,358,127.7z"/>
			<path id="XMLID_2493_" class="st42" d="M325.8,112.5c-0.4-1.1-2.1-2.6-2.8-3.6c-2.1-3-3.8-6.4-4.8-9.9
				c-1.7-5.7-1.2-11.7,1.2-17.1c2.2-4.9,6.2-8.4,8.6-13c4.8-9.6,3.4-20.4-2.2-29.4c0.3,0.5,2.1,1.1,2.6,1.5c2.1,1.4,3.9,3.2,5.3,5.2
				c5.3,7.8,4,17.8,0.9,26.2c-2.2,6.1-7.1,10.5-9.1,16.8C323,96.7,323.3,104.9,325.8,112.5z"/>
			<path id="XMLID_2492_" class="st42" d="M292.4,118.9c-0.4-1.1-2.1-2.6-2.8-3.6c-2.1-3-3.8-6.4-4.8-9.9
				c-1.7-5.7-1.2-11.7,1.2-17.1c2.2-4.9,6.2-8.4,8.6-13c4.8-9.6,3.4-20.4-2.2-29.4c0.3,0.5,2.1,1.1,2.6,1.5c2.1,1.4,3.9,3.2,5.3,5.2
				c5.3,7.8,4,17.8,0.9,26.2c-2.2,6.1-7.1,10.5-9.1,16.8C289.6,103.1,289.9,111.3,292.4,118.9z"/>
			<path id="XMLID_2491_" class="st42" d="M261,144.6c0.7-2,3.6-4.4,4.8-6.1c3.5-5.2,6.4-10.9,8.2-16.9c2.9-9.7,2.1-19.9-2-29.2
				c-3.7-8.3-10.6-14.3-14.6-22.2c-8.2-16.3-5.8-34.8,3.7-50.1c-0.5,0.9-3.6,1.9-4.5,2.5c-3.5,2.4-6.6,5.4-9,8.9
				c-9.1,13.2-6.8,30.3-1.6,44.6c3.8,10.3,12,18,15.6,28.7C265.7,117.7,265.3,131.6,261,144.6z"/>
			<rect id="XMLID_2516_" x="120.1" y="158.9" class="st225" width="287" height="29.4"/>
		</g>
	</g>
</g>
</svg>
